<svg width="25" height="25" viewBox="0 0 25 25" fill="none" xmlns="http://www.w3.org/2000/svg">
<path d="M5.46875 11.7188H21.0938C21.301 11.7188 21.4997 11.8011 21.6462 11.9476C21.7927 12.0941 21.875 12.2928 21.875 12.5C21.875 12.7072 21.7927 12.9059 21.6462 13.0524C21.4997 13.1989 21.301 13.2812 21.0938 13.2812H5.46875C5.26155 13.2812 5.06284 13.1989 4.91632 13.0524C4.76981 12.9059 4.6875 12.7072 4.6875 12.5C4.6875 12.2928 4.76981 12.0941 4.91632 11.9476C5.06284 11.8011 5.26155 11.7188 5.46875 11.7188Z" fill="#1B1B1D"/>
<path d="M5.79224 12.5L12.2719 18.9781C12.4186 19.1248 12.501 19.3238 12.501 19.5313C12.501 19.7387 12.4186 19.9377 12.2719 20.0844C12.1252 20.2311 11.9263 20.3135 11.7188 20.3135C11.5113 20.3135 11.3124 20.2311 11.1657 20.0844L4.13443 13.0531C4.06167 12.9806 4.00395 12.8944 3.96457 12.7994C3.92518 12.7045 3.90491 12.6028 3.90491 12.5C3.90491 12.3972 3.92518 12.2955 3.96457 12.2006C4.00395 12.1057 4.06167 12.0195 4.13443 11.9469L11.1657 4.91564C11.3124 4.76894 11.5113 4.68652 11.7188 4.68652C11.9263 4.68652 12.1252 4.76894 12.2719 4.91564C12.4186 5.06233 12.501 5.2613 12.501 5.46876C12.501 5.67622 12.4186 5.87519 12.2719 6.02189L5.79224 12.5Z" fill="#1B1B1D"/>
</svg>
