<svg width="36" height="36" viewBox="0 0 36 36" fill="none" xmlns="http://www.w3.org/2000/svg">
<path d="M12.96 6H23.04C26.88 6 30 9.12 30 12.96V23.04C30 24.8859 29.2667 26.6562 27.9615 27.9615C26.6562 29.2667 24.8859 30 23.04 30H12.96C9.12 30 6 26.88 6 23.04V12.96C6 11.1141 6.73328 9.34379 8.03854 8.03854C9.34379 6.73328 11.1141 6 12.96 6ZM12.72 8.4C11.5743 8.4 10.4755 8.85514 9.6653 9.6653C8.85514 10.4755 8.4 11.5743 8.4 12.72V23.28C8.4 25.668 10.332 27.6 12.72 27.6H23.28C24.4257 27.6 25.5245 27.1449 26.3347 26.3347C27.1449 25.5245 27.6 24.4257 27.6 23.28V12.72C27.6 10.332 25.668 8.4 23.28 8.4H12.72ZM24.3 10.2C24.6978 10.2 25.0794 10.358 25.3607 10.6393C25.642 10.9206 25.8 11.3022 25.8 11.7C25.8 12.0978 25.642 12.4794 25.3607 12.7607C25.0794 13.042 24.6978 13.2 24.3 13.2C23.9022 13.2 23.5206 13.042 23.2393 12.7607C22.958 12.4794 22.8 12.0978 22.8 11.7C22.8 11.3022 22.958 10.9206 23.2393 10.6393C23.5206 10.358 23.9022 10.2 24.3 10.2ZM18 12C19.5913 12 21.1174 12.6321 22.2426 13.7574C23.3679 14.8826 24 16.4087 24 18C24 19.5913 23.3679 21.1174 22.2426 22.2426C21.1174 23.3679 19.5913 24 18 24C16.4087 24 14.8826 23.3679 13.7574 22.2426C12.6321 21.1174 12 19.5913 12 18C12 16.4087 12.6321 14.8826 13.7574 13.7574C14.8826 12.6321 16.4087 12 18 12ZM18 14.4C17.0452 14.4 16.1295 14.7793 15.4544 15.4544C14.7793 16.1295 14.4 17.0452 14.4 18C14.4 18.9548 14.7793 19.8705 15.4544 20.5456C16.1295 21.2207 17.0452 21.6 18 21.6C18.9548 21.6 19.8705 21.2207 20.5456 20.5456C21.2207 19.8705 21.6 18.9548 21.6 18C21.6 17.0452 21.2207 16.1295 20.5456 15.4544C19.8705 14.7793 18.9548 14.4 18 14.4Z" fill="#484848"/>
</svg>
