<svg xmlns="http://www.w3.org/2000/svg" width="335" height="100" viewBox="0 0 335 100" fill="none">
<path d="M149.907 35.1355H139.755V45.2871H149.907V35.1355Z" fill="#264932"/>
<path d="M139.779 45.2629H129.627V55.4145H139.779V45.2629Z" fill="#264932"/>
<path d="M129.652 55.3904H119.5V65.5419H129.652V55.3904Z" fill="#264932"/>
<path d="M165.999 62.8389H162.756C162.506 62.8389 162.35 62.6829 162.35 62.4334V50.3019H160.105C159.855 50.3019 159.699 50.146 159.699 49.8965V47.0897C159.699 46.8402 159.855 46.6843 160.105 46.6843H162.35V45.6551C162.35 41.7256 164.564 39.2307 168.026 39.2307C170.552 39.2307 172.392 40.3846 173.484 42.6612C173.577 42.9107 173.484 43.0979 173.265 43.1914L170.739 44.2517C170.521 44.3453 170.334 44.2829 170.209 44.0646C169.71 43.1914 169.18 42.9107 168.338 42.9107C167.122 42.9107 166.404 43.8151 166.404 45.5928V46.6843H170.459C170.708 46.6843 170.864 46.8402 170.864 47.0897V49.8965C170.864 50.146 170.708 50.3019 170.459 50.3019H166.404V62.4334C166.404 62.6829 166.248 62.8389 165.999 62.8389ZM180.222 63.1507C175.139 63.1507 172.051 59.6579 172.051 54.7616C172.051 49.8653 175.139 46.3724 180.222 46.3724C185.181 46.3724 188.019 50.0524 187.863 55.6036C187.832 55.8843 187.676 56.009 187.426 56.009H176.355C176.729 58.2233 178.101 59.5643 180.253 59.5643C181.906 59.5643 183.06 58.9406 183.809 57.7243C183.933 57.506 184.12 57.4748 184.339 57.5372L187.114 58.504C187.364 58.5975 187.457 58.7846 187.333 59.0341C185.898 61.8721 183.216 63.1507 180.222 63.1507ZM176.417 52.984H183.528C183.154 51.0816 181.937 49.9589 180.191 49.9589C178.289 49.9589 176.916 51.0504 176.417 52.984ZM196.96 62.8389H194.902C194.684 62.8389 194.497 62.7453 194.434 62.527L188.789 47.1521C188.696 46.8714 188.852 46.6843 189.132 46.6843H193.031C193.249 46.6843 193.405 46.7778 193.467 47.0273L196.212 55.9467L199.985 46.9962C200.079 46.809 200.235 46.6843 200.453 46.6843H202.511C202.73 46.6843 202.886 46.7778 202.979 46.9962L206.566 55.7284L209.466 47.0273C209.528 46.809 209.716 46.6843 209.934 46.6843H213.489C213.77 46.6843 213.926 46.8714 213.832 47.1521L208.187 62.527C208.125 62.7453 207.938 62.8389 207.72 62.8389H205.661C205.443 62.8389 205.287 62.7453 205.193 62.527L201.42 53.2958L197.428 62.527C197.335 62.7141 197.179 62.8389 196.96 62.8389Z" fill="#264932"/>
</svg>