<svg xmlns="http://www.w3.org/2000/svg" width="136" height="136" viewBox="0 0 136 136" fill="none">
<path d="M135.34 0H90.1553V45.1846H135.34V0Z" fill="black"/>
<path d="M90.2615 45.0776H45.0769V90.2622H90.2615V45.0776Z" fill="black"/>
<path d="M45.1846 90.1553H0V135.34H45.1846V90.1553Z" fill="black"/>
<path d="M30.0322 128.222H25.3528C25.0094 128.222 24.7947 128.007 24.7947 127.664V122.126H9.85497C9.51153 122.126 9.29688 121.911 9.29688 121.568V120.151C9.29688 119.893 9.33981 119.679 9.51153 119.464L26.1256 97.0544C26.2973 96.8397 26.5119 96.7109 26.8125 96.7109H30.0322C30.3757 96.7109 30.5903 96.9256 30.5903 97.269V116.674H34.6687C35.0122 116.674 35.2268 116.888 35.2268 117.232V121.568C35.2268 121.911 35.0122 122.126 34.6687 122.126H30.5903V127.664C30.5903 128.007 30.3757 128.222 30.0322 128.222ZM24.7947 106.757L17.6254 116.674H24.7947V106.757Z" fill="white"/>
<path d="M67.0804 82.982C59.4388 82.982 54.8882 76.8859 54.8882 66.6255C54.8882 56.3652 59.4388 50.269 67.0804 50.269C74.7649 50.269 79.3155 56.3652 79.3155 66.6255C79.3155 76.8859 74.7649 82.982 67.0804 82.982ZM67.0804 77.3152C70.9441 77.3152 73.3053 73.9237 73.3053 66.6255C73.3053 59.3273 70.9441 55.9358 67.0804 55.9358C63.2596 55.9358 60.8984 59.3273 60.8984 66.6255C60.8984 73.9237 63.2596 77.3152 67.0804 77.3152Z" fill="white"/>
<path d="M120.623 39.8141H115.943C115.6 39.8141 115.385 39.5994 115.385 39.256V33.718H100.445C100.102 33.718 99.8872 33.5033 99.8872 33.1599V31.7432C99.8872 31.4856 99.9301 31.271 100.102 31.0563L116.716 8.64667C116.888 8.43201 117.102 8.30322 117.403 8.30322H120.623C120.966 8.30322 121.181 8.51787 121.181 8.86132V28.2658H125.259C125.602 28.2658 125.817 28.4805 125.817 28.8239V33.1599C125.817 33.5033 125.602 33.718 125.259 33.718H121.181V39.256C121.181 39.5994 120.966 39.8141 120.623 39.8141ZM115.385 18.3489L108.216 28.2658H115.385V18.3489Z" fill="white"/>
</svg>