<svg width="2839" height="1877" viewBox="0 0 2839 1877" fill="none" xmlns="http://www.w3.org/2000/svg">
<rect width="2839" height="1877" fill="#264932"/>
<path d="M1355.2 1129H1304.18C1300.26 1129 1297.8 1126.55 1297.8 1122.62V931.79H1262.48C1258.56 931.79 1256.1 929.337 1256.1 925.412V881.261C1256.1 877.336 1258.56 874.883 1262.48 874.883H1297.8V858.695C1297.8 796.882 1332.63 757.637 1387.09 757.637C1426.82 757.637 1455.77 775.788 1472.94 811.6C1474.41 815.524 1472.94 818.468 1469.5 819.939L1429.77 836.619C1426.33 838.09 1423.39 837.109 1421.43 833.675C1413.58 819.939 1405.24 815.524 1391.99 815.524C1372.86 815.524 1361.58 829.751 1361.58 857.713V874.883H1425.35C1429.28 874.883 1431.73 877.336 1431.73 881.261V925.412C1431.73 929.337 1429.28 931.79 1425.35 931.79H1361.58V1122.62C1361.58 1126.55 1359.12 1129 1355.2 1129ZM1578.94 1133.91C1498.97 1133.91 1450.41 1078.96 1450.41 1001.94C1450.41 924.922 1498.97 869.978 1578.94 869.978C1656.94 869.978 1701.58 927.865 1699.13 1015.19C1698.64 1019.6 1696.18 1021.56 1692.26 1021.56H1518.1C1523.99 1056.4 1545.58 1077.49 1579.43 1077.49C1605.43 1077.49 1623.58 1067.68 1635.35 1048.55C1637.31 1045.11 1640.26 1044.62 1643.69 1045.6L1687.35 1060.81C1691.28 1062.28 1692.75 1065.23 1690.79 1069.15C1668.22 1113.79 1626.03 1133.91 1578.94 1133.91ZM1519.09 973.979H1630.94C1625.05 944.054 1605.92 926.394 1578.45 926.394C1548.52 926.394 1526.93 943.564 1519.09 973.979ZM1842.23 1129H1809.85C1806.42 1129 1803.48 1127.53 1802.49 1124.09L1713.7 882.242C1712.23 877.827 1714.68 874.883 1719.1 874.883H1780.42C1783.85 874.883 1786.31 876.355 1787.29 880.28L1830.46 1020.58L1889.82 879.789C1891.29 876.846 1893.74 874.883 1897.18 874.883H1929.55C1932.99 874.883 1935.44 876.355 1936.91 879.789L1993.33 1017.15L2038.95 880.28C2039.93 876.846 2042.88 874.883 2046.31 874.883H2102.23C2106.65 874.883 2109.1 877.827 2107.63 882.242L2018.84 1124.09C2017.86 1127.53 2014.91 1129 2011.48 1129H1979.1C1975.67 1129 1973.21 1127.53 1971.74 1124.09L1912.38 978.885L1849.59 1124.09C1848.12 1127.04 1845.67 1129 1842.23 1129Z" fill="white"/>
<path d="M897.314 1019.25H767.093V1149.79H897.314V1019.25Z" fill="white"/>
<path d="M1028.69 887.568H898.469V1018.1H1028.69V887.568Z" fill="white"/>
<path d="M1157.76 760.496H1027.54V891.029H1157.76V760.496Z" fill="white"/>
</svg>
