<svg xmlns="http://www.w3.org/2000/svg" width="current" height="current" viewBox="0 0 15 12" fill="none">
<path d="M0.857178 6.00002C1.90861 3.30771 4.36369 1.40002 7.42861 1.40002C10.4935 1.40002 12.9486 3.30771 14 6.00002C12.9486 8.69234 10.4935 10.6 7.42861 10.6C4.36369 10.6 1.90861 8.69234 0.857178 6.00002Z" stroke="#A5A5A5" stroke-width="1.31429" stroke-linecap="round" stroke-linejoin="round"/>
<path d="M9.40013 5.99999C9.40013 6.52285 9.19243 7.02429 8.82271 7.394C8.453 7.76372 7.95156 7.97142 7.4287 7.97142C6.90585 7.97142 6.40441 7.76372 6.03469 7.394C5.66498 7.02429 5.45728 6.52285 5.45728 5.99999C5.45728 5.47714 5.66498 4.9757 6.03469 4.60598C6.40441 4.23627 6.90585 4.02856 7.4287 4.02856C7.95156 4.02856 8.453 4.23627 8.82271 4.60598C9.19243 4.9757 9.40013 5.47714 9.40013 5.99999Z" stroke="#A5A5A5" stroke-width="1.31429" stroke-linecap="round" stroke-linejoin="round"/>
</svg>