<svg width="current" height="current" viewBox="0 0 24 22" fill="current" xmlns="http://www.w3.org/2000/svg">
<path d="M10.8804 17.2823C10.9961 17.3977 11.0879 17.5347 11.1505 17.6855C11.2132 17.8364 11.2454 17.9981 11.2454 18.1615C11.2454 18.3248 11.2132 18.4866 11.1505 18.6375C11.0879 18.7883 10.9961 18.9253 10.8804 19.0406L10.3508 19.5702C9.78869 20.1344 9.12027 20.5816 8.38422 20.8859C7.64818 21.1902 6.85911 21.3455 6.06265 21.343C4.86322 21.3434 3.69062 20.988 2.6932 20.3218C1.69578 19.6556 0.918369 18.7085 0.459313 17.6004C0.000256345 16.4923 -0.119815 15.273 0.114289 14.0966C0.348393 12.9202 0.926153 11.8397 1.77447 10.9918L5.36864 7.39761C6.13312 6.63324 7.08801 6.0871 8.13446 5.81572C9.1809 5.54433 10.2809 5.55758 11.3205 5.85408C12.3601 6.15059 13.3015 6.71957 14.0474 7.50212C14.7932 8.28468 15.3164 9.25237 15.5626 10.305C15.6034 10.4651 15.6118 10.6316 15.5874 10.795C15.563 10.9583 15.5062 11.1152 15.4204 11.2563C15.3346 11.3974 15.2215 11.52 15.0877 11.6169C14.9539 11.7137 14.8022 11.7829 14.6413 11.8203C14.4804 11.8578 14.3137 11.8627 14.1509 11.8349C13.9881 11.8071 13.8325 11.7471 13.6932 11.6584C13.5539 11.5696 13.4337 11.454 13.3396 11.3182C13.2456 11.1824 13.1796 11.0293 13.1455 10.8677C12.9994 10.2463 12.6899 9.67522 12.2492 9.2135C11.8084 8.75177 11.2523 8.41615 10.6384 8.24132C10.0245 8.06648 9.37504 8.05879 8.75716 8.21904C8.13927 8.37928 7.5754 8.70165 7.12384 9.15281L3.52967 12.747C3.02867 13.2476 2.68737 13.8855 2.54894 14.5801C2.4105 15.2746 2.48116 15.9947 2.75196 16.6491C3.02276 17.3035 3.48155 17.8629 4.0703 18.2566C4.65905 18.6502 5.35131 18.8605 6.05955 18.8607C6.53013 18.8621 6.99632 18.7701 7.43111 18.5901C7.8659 18.41 8.26066 18.1455 8.59253 17.8119L9.12106 17.2823C9.23638 17.1665 9.37346 17.0745 9.52442 17.0118C9.67538 16.9491 9.83725 16.9168 10.0007 16.9168C10.1642 16.9168 10.3261 16.9491 10.477 17.0118C10.628 17.0745 10.7651 17.1665 10.8804 17.2823ZM22.2214 2.43301C21.0838 1.29582 19.5412 0.656982 17.9327 0.656982C16.3242 0.656982 14.7816 1.29582 13.644 2.43301L13.1155 2.96153C12.8823 3.19469 12.7513 3.51093 12.7513 3.84068C12.7513 4.17042 12.8823 4.48666 13.1155 4.71983C13.3487 4.95299 13.6649 5.08398 13.9946 5.08398C14.3244 5.08398 14.6406 4.95299 14.8738 4.71983L15.4034 4.19027C16.0754 3.51821 16.9869 3.14064 17.9374 3.14064C18.8878 3.14064 19.7993 3.51821 20.4714 4.19027C21.1434 4.86233 21.521 5.77385 21.521 6.72429C21.521 7.67473 21.1434 8.58624 20.4714 9.2583L16.871 12.8473C16.5391 13.1809 16.1444 13.4454 15.7096 13.6254C15.2748 13.8055 14.8086 13.8975 14.338 13.8961C13.5308 13.8955 12.7474 13.6222 12.1149 13.1206C11.4824 12.619 11.0379 11.9184 10.8535 11.1324C10.7789 10.8118 10.5799 10.5339 10.3004 10.3599C10.0209 10.1859 9.68375 10.1301 9.36308 10.2047C9.04241 10.2793 8.76451 10.4782 8.59052 10.7577C8.41654 11.0372 8.36071 11.3744 8.43532 11.6951C8.74675 13.0261 9.49868 14.2129 10.5692 15.063C11.6396 15.913 12.9659 16.3766 14.3329 16.3784H14.338C15.1349 16.3806 15.9242 16.2247 16.6605 15.9199C17.3967 15.6151 18.0652 15.1673 18.6272 14.6025L22.2214 11.0083C22.7845 10.4453 23.2313 9.77687 23.536 9.04118C23.8408 8.3055 23.9977 7.51698 23.9977 6.72067C23.9977 5.92435 23.8408 5.13583 23.536 4.40015C23.2313 3.66447 22.7845 2.99603 22.2214 2.43301Z" fill="current"/>
</svg>
