<svg xmlns="http://www.w3.org/2000/svg" width="27" height="27" viewBox="0 0 27 27" fill="none">
<rect width="27" height="27" fill="#E8E5E5"/>
<g id="floating" clip-path="url(#clip0_1255_1091)">
<rect width="375" height="812" transform="translate(-241 -723)" fill="white"/>
<g id="Frame 184961">
<path id="최초의 산업용 난방은 라디에이터라고 할 수 있습니다. 그도 그럴 것이 산업혁명의 시작은 증기기관이고, 라디에이터는 바로 증기로 공기를 따뜻하게 만드는 장치이기 때문이죠. 게다가 증기기관을 만들어낸 제임스 와트James Watt 도 1790년대 일종의 라디에이터를 만들어 집에 설치했다고 합니다." d="M-215.53 -5.97238V-3.56906C-214.277 -3.63122 -212.998 -3.73999 -211.801 -3.92127L-211.708 -3.06146C-214.691 -2.52279 -217.892 -2.50207 -220.244 -2.50207L-220.399 -3.46547C-219.311 -3.47065 -218.022 -3.47583 -216.67 -3.52244V-5.97238H-215.53ZM-220.006 -6.41782C-218.079 -6.99275 -216.722 -8.41195 -216.691 -10.1678H-219.684V-11.1209H-216.67V-12.7369H-215.53V-11.1209H-212.474V-10.1678H-215.53C-215.494 -8.48446 -214.106 -7.11706 -212.184 -6.5732L-212.723 -5.6616C-214.287 -6.13294 -215.515 -7.1326 -216.1 -8.45338C-216.665 -7.06008 -217.882 -6.01381 -219.446 -5.53729L-220.006 -6.41782ZM-210.941 0.212017V-12.8301H-209.791V0.212017H-210.941ZM-195.584 -2.4192V-1.4558H-207.508V-2.4192H-202.131V-5.40262H-201.002V-2.4192H-195.584ZM-206.845 -5.84807C-204.333 -6.25207 -202.157 -7.76968 -202.142 -9.80525H-206.399V-10.7583H-202.131V-12.5504H-201.002V-10.7583H-196.734V-9.80525H-200.982C-200.976 -7.76968 -198.801 -6.25207 -196.299 -5.84807L-196.745 -4.94682C-198.827 -5.30939 -200.738 -6.36602 -201.567 -7.99758C-202.39 -6.36602 -204.302 -5.30939 -206.389 -4.94682L-206.845 -5.84807ZM-190.286 -11.8771C-188.235 -11.8771 -186.785 -10.634 -186.775 -8.82113C-186.785 -7.00829 -188.235 -5.76519 -190.286 -5.76519C-192.337 -5.76519 -193.808 -7.00829 -193.798 -8.82113C-193.808 -10.634 -192.337 -11.8771 -190.286 -11.8771ZM-194.471 -3.64157C-192.068 -3.63122 -188.753 -3.65193 -185.873 -4.07666L-185.78 -3.22721C-188.764 -2.66782 -191.965 -2.65746 -194.316 -2.65746L-194.471 -3.64157ZM-192.669 -8.82113C-192.679 -7.60912 -191.674 -6.77003 -190.286 -6.77003C-188.909 -6.77003 -187.904 -7.60912 -187.904 -8.82113C-187.904 -10.0331 -188.909 -10.8722 -190.286 -10.8722C-191.674 -10.8722 -192.679 -10.0331 -192.669 -8.82113ZM-185.014 0.212017V-12.8301H-183.864V0.212017H-185.014ZM-173.434 -10.375C-173.444 -8.58287 -172.087 -6.92541 -170.17 -6.26243L-170.761 -5.34047C-172.232 -5.87396 -173.382 -6.97203 -173.962 -8.34461C-174.516 -6.79593 -175.692 -5.60463 -177.225 -5.01934L-177.867 -5.93094C-175.878 -6.63536 -174.573 -8.39641 -174.563 -10.4164V-12.0325H-173.434V-10.375ZM-175.764 -0.0987569V-4.13881H-174.594V-1.0518H-167.032V-0.0987569H-175.764ZM-168.782 -3.20649V-12.8405H-167.632V-8.84185H-165.675V-7.85774H-167.632V-3.20649H-168.782ZM-161.267 -12.2189C-159.517 -12.2293 -158.191 -11.2141 -157.942 -9.71202H-155.207V-12.8301H-154.057V-5.84807H-155.207V-8.75898H-157.937C-158.165 -7.22583 -159.501 -6.20028 -161.267 -6.20028C-163.246 -6.20028 -164.655 -7.43301 -164.644 -9.21478C-164.655 -10.9862 -163.246 -12.2293 -161.267 -12.2189ZM-163.546 -9.21478C-163.546 -8.03384 -162.604 -7.17403 -161.267 -7.17403C-159.952 -7.17403 -159.009 -8.03384 -159.009 -9.21478C-159.009 -10.4164 -159.952 -11.2555 -161.267 -11.2452C-162.604 -11.2555 -163.546 -10.4164 -163.546 -9.21478ZM-162.448 0.0151934V-5.18508H-161.298V-3.53798H-155.207V-5.18508H-154.057V0.0151934H-162.448ZM-161.298 -0.927486H-155.207V-2.61602H-161.298V-0.927486ZM-140.016 -6.38674V-5.44406H-151.888V-6.38674H-148.946V-8.22548C-149.987 -8.62949 -150.572 -9.29247 -150.572 -10.1678C-150.572 -11.701 -148.811 -12.5815 -145.962 -12.5815C-143.124 -12.5815 -141.363 -11.701 -141.363 -10.1678C-141.363 -9.29765 -141.943 -8.63467 -142.969 -8.23584V-6.38674H-140.016ZM-150.458 -2.14986C-150.458 -3.63122 -148.78 -4.44959 -145.962 -4.43923C-143.165 -4.44959 -141.487 -3.63122 -141.477 -2.14986C-141.487 -0.658149 -143.165 0.160221 -145.962 0.160221C-148.78 0.160221 -150.458 -0.658149 -150.458 -2.14986ZM-149.381 -10.1678C-149.391 -9.21478 -148.086 -8.66575 -145.962 -8.66575C-143.849 -8.66575 -142.533 -9.21478 -142.533 -10.1678C-142.533 -11.1105 -143.849 -11.6802 -145.962 -11.6802C-148.086 -11.6802 -149.391 -11.1105 -149.381 -10.1678ZM-149.288 -2.14986C-149.298 -1.25898 -148.044 -0.730663 -145.962 -0.741022C-143.89 -0.730663 -142.637 -1.25898 -142.627 -2.14986C-142.637 -3.03039 -143.89 -3.54834 -145.962 -3.5587C-148.044 -3.54834 -149.298 -3.03039 -149.288 -2.14986ZM-147.796 -6.38674H-144.108V-7.92507C-144.657 -7.82666 -145.279 -7.77486 -145.962 -7.77486C-146.636 -7.77486 -147.252 -7.82148 -147.796 -7.91989V-6.38674ZM-133.367 -11.8771V-6.75967C-131.508 -6.75449 -129.591 -6.87362 -127.473 -7.31906L-127.338 -6.35566C-129.545 -5.89986 -131.523 -5.77555 -133.491 -5.77555H-134.527V-11.8771H-133.367ZM-133.087 -0.0987569V-4.33564H-131.938V-1.0518H-124.51V-0.0987569H-133.087ZM-126.126 -3.41367V-12.8198H-124.976V-8.9558H-123.018V-7.96133H-124.976V-3.41367H-126.126ZM-116.187 -4.64641C-113.514 -4.64641 -111.898 -3.76588 -111.898 -2.24309C-111.898 -0.709945 -113.514 0.17058 -116.187 0.180939C-118.87 0.17058 -120.507 -0.709945 -120.507 -2.24309C-120.507 -3.76588 -118.87 -4.64641 -116.187 -4.64641ZM-121.636 -6.01381V-12.0221H-120.507V-10.0228H-116.715V-12.0221H-115.576V-6.01381H-121.636ZM-120.507 -6.94613H-116.715V-9.11119H-120.507V-6.94613ZM-119.357 -2.24309C-119.367 -1.31077 -118.155 -0.751381 -116.187 -0.751381C-114.219 -0.751381 -113.017 -1.31077 -113.017 -2.24309C-113.017 -3.17541 -114.219 -3.72445 -116.187 -3.73481C-118.155 -3.72445 -119.367 -3.17541 -119.357 -2.24309ZM-113.162 -4.99862V-12.8301H-112.012V-9.55663H-110.054V-8.57251H-112.012V-4.99862H-113.162ZM-97.3599 -5.96202V-5.0297H-109.231V-5.96202H-97.3599ZM-107.916 -9.79489C-107.916 -11.4213 -106.124 -12.3847 -103.306 -12.3743C-100.499 -12.3847 -98.7066 -11.4213 -98.7066 -9.79489C-98.7066 -8.16851 -100.499 -7.19475 -103.306 -7.19475C-106.124 -7.19475 -107.916 -8.16851 -107.916 -9.79489ZM-107.698 -0.0987569V-3.87983H-106.538V-1.0518H-98.6859V-0.0987569H-107.698ZM-106.725 -9.79489C-106.735 -8.75898 -105.399 -8.13743 -103.306 -8.13743C-101.213 -8.13743 -99.8772 -8.75898 -99.8772 -9.79489C-99.8772 -10.8101 -101.213 -11.442 -103.306 -11.442C-105.399 -11.442 -106.735 -10.8101 -106.725 -9.79489ZM-82.4235 -12.8301V-7.65055H-80.2481V-6.6768H-82.4235V0.212017H-83.563V-12.8301H-82.4235ZM-91.9953 -10.6651V-11.6181H-86.0699V-6.95649H-90.8248V-3.91091C-88.4059 -3.91091 -86.7174 -3.99896 -84.7336 -4.36671L-84.6196 -3.41367C-86.6708 -3.04075 -88.4111 -2.94751 -90.9283 -2.93715H-91.9643V-7.90953H-87.2198V-10.6651H-91.9953ZM-68.807 -12.8301V0.212017H-69.9569V-12.8301H-68.807ZM-78.6896 -3.02003V-11.587H-72.4949V-10.6236H-77.5294V-4.0145C-74.9966 -4.0145 -73.3391 -4.0922 -71.3864 -4.44959L-71.2621 -3.47583C-73.2822 -3.11326 -75.0018 -3.03039 -77.633 -3.02003H-78.6896ZM-55.4184 -12.8301V0.191298H-56.5269V-12.8301H-55.4184ZM-66.4095 -7.21547C-66.4095 -9.98135 -65.3114 -11.732 -63.6229 -11.732C-62.0379 -11.732 -60.9657 -10.2093 -60.8207 -7.75414H-59.1374V-12.5504H-58.0289V-0.471685H-59.1374V-6.80111H-60.8155C-60.9295 -4.26312 -62.012 -2.67818 -63.6229 -2.68854C-65.3114 -2.67818 -66.4095 -4.43923 -66.4095 -7.21547ZM-65.3321 -7.21547C-65.3425 -5.10221 -64.6691 -3.76588 -63.6229 -3.77624C-62.5559 -3.76588 -61.8825 -5.10221 -61.8825 -7.21547C-61.8825 -9.32873 -62.5559 -10.6547 -63.6229 -10.6547C-64.6691 -10.6547 -65.3425 -9.32873 -65.3321 -7.21547ZM-42.8793 -12.8301V0.212017H-44.0292V-12.8301H-42.8793ZM-53.1245 -7.28798C-53.1245 -10.0539 -51.7467 -11.8149 -49.7992 -11.8253C-47.8724 -11.8149 -46.4739 -10.0539 -46.4739 -7.28798C-46.4739 -4.51174 -47.8724 -2.75069 -49.7992 -2.75069C-51.7467 -2.75069 -53.1245 -4.51174 -53.1245 -7.28798ZM-52.016 -7.28798C-52.016 -5.16436 -51.1044 -3.77624 -49.7992 -3.77624C-48.4939 -3.77624 -47.5927 -5.16436 -47.5927 -7.28798C-47.5927 -9.40124 -48.4939 -10.7894 -49.7992 -10.7997C-51.1044 -10.7894 -52.016 -9.40124 -52.016 -7.28798ZM-29.8533 -12.8301V0.212017H-30.9928V-6.95649H-33.7483V-7.90953H-30.9928V-12.8301H-29.8533ZM-40.0466 -2.9268V-11.6388H-33.9658V-10.6858H-38.8864V-7.97169H-34.5459V-7.03937H-38.8864V-3.89019C-36.4935 -3.89537 -34.9603 -3.95753 -33.1785 -4.28384L-33.0439 -3.3308C-34.9396 -3.02003 -36.5349 -2.93715 -39.0522 -2.9268H-40.0466ZM-17.6042 -12.8301V-7.65055H-15.4288V-6.6768H-17.6042V0.212017H-18.7437V-12.8301H-17.6042ZM-27.176 -10.6651V-11.6181H-21.2506V-6.95649H-26.0054V-3.91091C-23.5866 -3.91091 -21.898 -3.99896 -19.9143 -4.36671L-19.8003 -3.41367C-21.8514 -3.04075 -23.5917 -2.94751 -26.109 -2.93715H-27.1449V-7.90953H-22.4004V-10.6651H-27.176ZM-4.27774 -11.5145V-10.2196C-4.2881 -8.61395 -4.2881 -6.83218 -4.76462 -4.21133L-5.92484 -4.34599C-5.43796 -6.83218 -5.43796 -8.65539 -5.4276 -10.2196V-10.5615H-13.4559V-11.5145H-4.27774ZM-14.7197 -1.65262V-2.61602H-10.0685V-7.26727H-8.92899V-2.61602H-2.84818V-1.65262H-14.7197ZM12.1918 -12.8819V-9.71202H14.16V-8.75898H12.1918V-5.67196H11.0419V-12.8819H12.1918ZM2.03986 -10.7272V-11.6492H5.35478V-12.9648H6.49428V-11.6492H9.79884V-10.7272H2.03986ZM2.78572 -8.00276C2.77536 -9.31837 4.01845 -10.1367 5.92453 -10.1367C7.80989 -10.1367 9.04262 -9.31837 9.05298 -8.00276C9.04262 -6.6768 7.80989 -5.86878 5.92453 -5.86878C4.01845 -5.86878 2.77536 -6.6768 2.78572 -8.00276ZM3.88378 -4.12845V-4.99862H12.1918V-2.10843H5.044V-0.844613H12.6683V0.0462707H3.91486V-2.95787H11.0523V-4.12845H3.88378ZM3.88378 -8.00276C3.87342 -7.21547 4.68144 -6.72859 5.92453 -6.72859C7.14691 -6.72859 7.95492 -7.21547 7.96528 -8.00276C7.95492 -8.7797 7.14691 -9.28729 5.92453 -9.28729C4.68144 -9.28729 3.87342 -8.7797 3.88378 -8.00276ZM25.2739 -11.6181C25.2739 -9.78453 27.6669 -8.19959 30.0184 -7.86809L29.5522 -6.92541C27.5218 -7.26727 25.5173 -8.39123 24.6834 -9.99171C23.8547 -8.38087 21.8502 -7.26727 19.825 -6.92541L19.3485 -7.86809C21.7 -8.19959 24.0826 -9.75345 24.0826 -11.6181V-12.364H25.2739V-11.6181ZM18.7373 -4.53246V-5.49586H30.6088V-4.53246H25.2117V0.191298H24.0826V-4.53246H18.7373ZM39.8684 -4.09738C39.8684 -2.94233 40.4952 -1.71478 41.7279 -1.01036C42.971 -1.77693 43.6288 -3.08736 43.6288 -4.09738V-4.81215H44.7579V-4.09738C44.7476 -2.75069 45.7317 -1.41436 47.4099 -0.844613L46.8298 0.00483429C45.5297 -0.450967 44.6181 -1.36257 44.1675 -2.45546C43.7635 -1.39365 42.971 -0.393992 41.7642 0.118785C40.4952 -0.368094 39.6923 -1.32113 39.3039 -2.41402C38.8325 -1.36257 37.9365 -0.461326 36.6882 0.00483429L36.1081 -0.844613C37.7552 -1.4558 38.7497 -2.84392 38.76 -4.09738V-4.81215H39.8684V-4.09738ZM35.7662 -9.01796C35.7662 -10.8308 37.2061 -12.0635 39.1847 -12.0635C41.1633 -12.0635 42.5929 -10.8308 42.5929 -9.01796C42.5929 -7.22583 41.1633 -5.99309 39.1847 -5.99309C37.2061 -5.99309 35.7662 -7.22583 35.7662 -9.01796ZM36.8954 -9.01796C36.885 -7.80594 37.8484 -6.95649 39.1847 -6.94613C40.5107 -6.95649 41.4741 -7.80594 41.4741 -9.01796C41.4741 -10.23 40.5107 -11.0898 39.1847 -11.0794C37.8484 -11.0898 36.885 -10.23 36.8954 -9.01796ZM45.0687 -5.38191V-12.8198H46.2186V-5.38191H45.0687ZM51.0816 -5.01934V-3.49655H57.5871V-5.01934H58.7474V0.0151934H49.9421V-5.01934H51.0816ZM48.4297 -5.93094V-6.89434H60.3012V-5.93094H48.4297ZM49.103 -8.7279C51.4235 -9.04903 53.775 -10.4164 53.775 -12.0739V-12.6851H54.9559V-12.0739C54.9559 -10.4682 57.3282 -9.02832 59.6175 -8.7279L59.1928 -7.8163C57.178 -8.11671 55.1942 -9.14745 54.3706 -10.5977C53.5419 -9.13191 51.5478 -8.11671 49.5381 -7.8163L49.103 -8.7279ZM51.0816 -0.917127H57.5871V-2.58494H51.0816V-0.917127ZM72.1256 -12.8301V0.191298H70.9861V-12.8301H72.1256ZM62.243 -3.16506V-11.5456H63.3721V-4.16989C65.3611 -4.17507 67.407 -4.33046 69.598 -4.79144L69.7534 -3.80732C67.4433 -3.3308 65.3818 -3.16506 63.2996 -3.16506H62.243ZM84.4368 -12.8301V-7.68163H86.6123V-6.71823H84.4368V0.212017H83.287V-12.8301H84.4368ZM74.9272 -3.05111V-11.5559H81.008V-10.6133H76.077V-4.02486C78.4337 -4.03004 80.1015 -4.12327 82.0335 -4.48066L82.1785 -3.48619C80.1378 -3.12362 78.4285 -3.05111 75.9527 -3.05111H74.9272ZM88.699 -0.917127C88.1811 -0.917127 87.746 -1.34185 87.7564 -1.85981C87.746 -2.37776 88.1811 -2.80249 88.699 -2.80249C89.217 -2.80249 89.6417 -2.37776 89.6417 -1.85981C89.6417 -1.34185 89.217 -0.917127 88.699 -0.917127ZM-210.206 14.558V15.8633C-210.206 17.5 -210.206 19.3543 -210.693 22.1823L-211.863 22.0684C-211.335 19.4061 -211.335 17.4586 -211.335 15.8633V15.511H-219.177V14.558H-210.206ZM-220.472 24.2749V23.3115H-208.6V24.2749H-220.472ZM-196.993 19.2714V20.2037H-201.013V23.5808H-195.584V24.5442H-207.508V23.5808H-202.152V20.2037H-205.985V14.2265H-197.118V15.1692H-204.835V19.2714H-196.993ZM-180.513 14.558V15.8633C-180.513 17.5 -180.513 19.3543 -181 22.1823L-182.171 22.0684C-181.643 19.4061 -181.643 17.4586 -181.643 15.8633V15.511H-189.484V14.558H-180.513ZM-190.779 24.2749V23.3115H-178.908V24.2749H-190.779ZM-171.486 13.8122V17.0338H-176.117V18.6188C-173.936 18.6188 -172.33 18.5618 -170.398 18.2355L-170.305 19.1575C-172.335 19.4786 -173.983 19.5407 -176.272 19.5407H-177.256V16.174H-172.626V14.703H-177.287V13.8122H-171.486ZM-175.547 21.5608V20.6595H-167.021V23.7258H-174.376V25.1036H-166.514V26.0463H-175.516V22.866H-168.161V21.5608H-175.547ZM-170.657 16.7852V15.8322H-168.171V13.1699H-167.021V20.0276H-168.171V16.7852H-170.657ZM-150.293 13.1802V21.9959H-151.443V17.8108H-154.302V16.8474H-151.443V13.1802H-150.293ZM-160.869 20.2244C-157.762 19.2662 -155.84 17.4689 -155.591 15.1485H-160.227V14.2058H-154.364C-154.374 17.5414 -156.612 19.9448 -160.362 21.1464L-160.869 20.2244ZM-159.502 25.2279C-157.202 24.8343 -155.099 23.3736 -155.089 21.4572V20.8564H-153.949V21.4572C-153.949 23.3529 -151.867 24.7825 -149.568 25.1968L-150.054 26.1188C-151.976 25.751 -153.747 24.7307 -154.519 23.2027C-155.307 24.741 -157.093 25.7614 -159.036 26.1499L-159.502 25.2279ZM-137.391 13.1699V26.212H-138.541V13.1699H-137.391ZM-147.636 18.712C-147.636 15.9461 -146.258 14.1851 -144.311 14.1747C-142.384 14.1851 -140.986 15.9461 -140.986 18.712C-140.986 21.4883 -142.384 23.2493 -144.311 23.2493C-146.258 23.2493 -147.636 21.4883 -147.636 18.712ZM-146.528 18.712C-146.528 20.8356 -145.616 22.2238 -144.311 22.2238C-143.006 22.2238 -142.104 20.8356 -142.104 18.712C-142.104 16.5988 -143.006 15.2106 -144.311 15.2003C-145.616 15.2106 -146.528 16.5988 -146.528 18.712ZM-127.013 15.625C-127.023 17.4171 -125.666 19.0746 -123.75 19.7376L-124.34 20.6595C-125.811 20.126 -126.961 19.028 -127.541 17.6554C-128.095 19.2041 -129.271 20.3954 -130.804 20.9807L-131.446 20.0691C-129.457 19.3646 -128.152 17.6036 -128.142 15.5836V13.9675H-127.013V15.625ZM-129.343 25.9012V21.8612H-128.173V24.9482H-120.611V25.9012H-129.343ZM-122.361 22.7935V13.1595H-121.212V17.1581H-119.254V18.1423H-121.212V22.7935H-122.361ZM-114.846 13.7811C-113.096 13.7707 -111.77 14.7859 -111.521 16.288H-108.786V13.1699H-107.636V20.1519H-108.786V17.241H-111.516C-111.744 18.7742 -113.08 19.7997 -114.846 19.7997C-116.825 19.7997 -118.234 18.567 -118.223 16.7852C-118.234 15.0138 -116.825 13.7707 -114.846 13.7811ZM-117.125 16.7852C-117.125 17.9662 -116.183 18.826 -114.846 18.826C-113.531 18.826 -112.588 17.9662 -112.588 16.7852C-112.588 15.5836 -113.531 14.7445 -114.846 14.7548C-116.183 14.7445 -117.125 15.5836 -117.125 16.7852ZM-116.027 26.0152V20.8149H-114.877V22.462H-108.786V20.8149H-107.636V26.0152H-116.027ZM-114.877 25.0725H-108.786V23.384H-114.877V25.0725ZM-98.0808 14.5166V15.4593H-105.456V14.5166H-102.287V13.0559H-101.147V14.5166H-98.0808ZM-104.68 18.6188C-104.69 17.1581 -103.467 16.1948 -101.727 16.1844C-99.9972 16.1948 -98.7645 17.1581 -98.7541 18.6188C-98.7645 20.0587 -99.9972 21.0428 -101.727 21.0532C-103.467 21.0428 -104.69 20.0587 -104.68 18.6188ZM-103.602 18.6188C-103.613 19.52 -102.846 20.1416 -101.727 20.1312C-100.619 20.1416 -99.8418 19.52 -99.8314 18.6188C-99.8418 17.7072 -100.619 17.0856 -101.727 17.0753C-102.846 17.0856 -103.613 17.7072 -103.602 18.6188ZM-103.436 23.125V22.1927H-94.6726V26.1913H-95.8225V23.125H-103.436ZM-98.1015 19.779V18.8156H-95.8225V17.3135H-98.0911V16.3812H-95.8225V13.1699H-94.6726V21.4261H-95.8225V19.779H-98.1015ZM-81.7087 13.1699V20.8874H-82.8586V18.826H-85.9145V19.9448H-91.8917V14.1644H-85.9145V15.2935H-82.8586V13.1699H-81.7087ZM-90.7522 19.0021H-87.0437V15.0967H-90.7522V19.0021ZM-90.3897 23.7258C-90.4 22.1616 -88.7426 21.2604 -86.0285 21.2604C-83.3248 21.2604 -81.6673 22.1616 -81.6673 23.7258C-81.6673 25.2797 -83.3248 26.1602 -86.0285 26.1602C-88.7426 26.1602 -90.4 25.2797 -90.3897 23.7258ZM-89.2502 23.7258C-89.2605 24.6685 -88.0278 25.2486 -86.0285 25.2486C-84.0395 25.2486 -82.8068 24.6685 -82.8068 23.7258C-82.8068 22.7417 -84.0395 22.172 -86.0285 22.1616C-88.0278 22.172 -89.2605 22.7417 -89.2502 23.7258ZM-85.9145 17.8729H-82.8586V16.2362H-85.9145V17.8729ZM-75.2815 14.1229C-73.2304 14.1229 -71.7801 15.366 -71.7697 17.1789C-71.7801 18.9917 -73.2304 20.2348 -75.2815 20.2348C-77.3326 20.2348 -78.8036 18.9917 -78.7932 17.1789C-78.8036 15.366 -77.3326 14.1229 -75.2815 14.1229ZM-79.4666 22.3584C-77.0632 22.3688 -73.7483 22.3481 -70.8685 21.9233L-70.7753 22.7728C-73.7587 23.3322 -76.9596 23.3425 -79.3112 23.3425L-79.4666 22.3584ZM-77.6641 17.1789C-77.6744 18.3909 -76.6696 19.23 -75.2815 19.23C-73.9037 19.23 -72.8989 18.3909 -72.8989 17.1789C-72.8989 15.9669 -73.9037 15.1278 -75.2815 15.1278C-76.6696 15.1278 -77.6744 15.9669 -77.6641 17.1789ZM-70.0087 26.212V13.1699H-68.8588V26.212H-70.0087ZM-58.18 16.6713C-58.1904 19.0435 -56.5744 21.4365 -54.6579 22.3066L-55.3623 23.2182C-56.8437 22.4931 -58.1231 20.9496 -58.7446 19.0953C-59.3454 21.0584 -60.63 22.7106 -62.1579 23.4772L-62.8831 22.5138C-60.9459 21.6229 -59.3402 19.1367 -59.3299 16.6713V14.299H-58.18V16.6713ZM-53.2284 26.212V13.1699H-52.0785V26.212H-53.2284ZM-45.4337 15.5836C-45.4337 17.3135 -44.1595 18.8985 -42.2327 19.5615L-42.8232 20.4523C-44.3046 19.9292 -45.4337 18.8674 -45.9931 17.5259C-46.5525 19.0021 -47.7438 20.1519 -49.2769 20.7113L-49.8985 19.8204C-47.9406 19.1264 -46.5836 17.4482 -46.5732 15.5836V15.0242H-49.5463V14.0815H-42.5124V15.0242H-45.4337V15.5836ZM-48.1892 22.6485V21.7058H-39.6637V26.1913H-40.8135V22.6485H-48.1892ZM-40.8135 21.0117V13.1699H-39.6637V16.6091H-37.7058V17.5932H-39.6637V21.0117H-40.8135ZM-25.0113 20.038V20.9703H-36.8828V20.038H-25.0113ZM-35.5672 16.2051C-35.5672 14.5787 -33.7751 13.6153 -30.9574 13.6257C-28.1501 13.6153 -26.358 14.5787 -26.358 16.2051C-26.358 17.8315 -28.1501 18.8052 -30.9574 18.8052C-33.7751 18.8052 -35.5672 17.8315 -35.5672 16.2051ZM-35.3497 25.9012V22.1202H-34.1894V24.9482H-26.3372V25.9012H-35.3497ZM-34.3759 16.2051C-34.3863 17.241 -33.0499 17.8626 -30.9574 17.8626C-28.8649 17.8626 -27.5285 17.241 -27.5285 16.2051C-27.5285 15.1899 -28.8649 14.558 -30.9574 14.558C-33.0499 14.558 -34.3863 15.1899 -34.3759 16.2051ZM-8.28276 19.3646V20.3177H-20.1543V19.3646H-8.28276ZM-19.481 17.6657C-17.2123 17.4016 -15.0265 16.2776 -14.9644 14.7963H-19.0666V13.8329H-9.34974V14.7963H-13.4727C-13.4209 16.2673 -11.2558 17.4016 -8.94574 17.6657L-9.37046 18.5773C-11.5096 18.3132 -13.5037 17.3602 -14.2185 15.9099C-14.9385 17.3602 -16.9274 18.3132 -19.0666 18.5773L-19.481 17.6657ZM-18.7247 23.8191C-18.7247 22.317 -17.0362 21.4572 -14.2289 21.4572C-11.4319 21.4572 -9.75375 22.317 -9.74339 23.8191C-9.75375 25.3211 -11.4319 26.1602 -14.2289 26.1602C-17.0362 26.1602 -18.7247 25.3211 -18.7247 23.8191ZM-17.5542 23.8191C-17.5645 24.7203 -16.3111 25.2383 -14.2289 25.2383C-12.1571 25.2383 -10.9036 24.7203 -10.8933 23.8191C-10.9036 22.8971 -12.1571 22.3791 -14.2289 22.3688C-16.3111 22.3791 -17.5645 22.8971 -17.5542 23.8191ZM3.57269 13.1699V26.1913H2.42283V13.1699H3.57269ZM-7.02469 22.8039C-3.50259 21.136 -1.70528 18.6291 -1.45148 15.5214H-6.42386V14.5891H-0.280904C-0.291264 18.3287 -2.0316 21.6436 -6.40314 23.7465L-7.02469 22.8039ZM16.5366 13.1699V26.1913H15.3867V13.1699H16.5366ZM5.93918 22.8039C9.46128 21.136 11.2586 18.6291 11.5124 15.5214H6.54001V14.5891H12.683C12.6726 18.3287 10.9323 21.6436 6.56072 23.7465L5.93918 22.8039ZM25.9576 14.1747V14.8688C25.9472 15.7182 25.9472 17.0131 25.6158 18.7224L24.4659 18.6291C24.7818 17.0649 24.8129 15.9617 24.8233 15.1381H19.4624V14.1747H25.9576ZM18.6648 19.9344C19.5039 19.9292 20.4569 19.924 21.4617 19.8981V17.0649H22.6012V19.8619C24.0463 19.7997 25.5381 19.6961 26.8899 19.5097L26.9624 20.3591C24.238 20.8253 21.0992 20.8771 18.7787 20.8874L18.6648 19.9344ZM20.6745 25.9012V22.0787H21.8243V24.9482H29.3658V25.9012H20.6745ZM27.7808 22.9696V13.1699H28.941V17.4068H30.8471V18.3909H28.941V22.9696H27.7808ZM42.4332 13.1699V26.212H41.2833V13.1699H42.4332ZM32.188 18.712C32.188 15.9461 33.5658 14.1851 35.5133 14.1747C37.4401 14.1851 38.8386 15.9461 38.8386 18.712C38.8386 21.4883 37.4401 23.2493 35.5133 23.2493C33.5658 23.2493 32.188 21.4883 32.188 18.712ZM33.2965 18.712C33.2965 20.8356 34.2081 22.2238 35.5133 22.2238C36.8186 22.2238 37.7198 20.8356 37.7198 18.712C37.7198 16.5988 36.8186 15.2106 35.5133 15.2003C34.2081 15.2106 33.2965 16.5988 33.2965 18.712ZM55.107 14.4855V15.7804C55.0967 17.386 55.0967 19.1678 54.6201 21.7887L53.4599 21.654C53.9468 19.1678 53.9468 17.3446 53.9572 15.7804V15.4385H45.9288V14.4855H55.107ZM44.665 24.3474V23.384H49.3163V18.7327H50.4558V23.384H56.5366V24.3474H44.665ZM59.7629 24.0055L58.6337 27.9938H57.546L58.354 24.0055H59.7629ZM75.3255 13.1699V18.3494H77.5009V19.3232H75.3255V26.212H74.186V13.1699H75.3255ZM65.7537 15.3349V14.3819H71.6791V19.0435H66.9243V22.0891C69.3431 22.0891 71.0317 22.001 73.0154 21.6333L73.1294 22.5863C71.0783 22.9593 69.3379 23.0525 66.8207 23.0628H65.7848V18.0905H70.5292V15.3349H65.7537ZM88.942 13.1699V26.212H87.7921V13.1699H88.942ZM79.0594 22.98V14.413H85.2542V15.3764H80.2196V21.9855C82.7524 21.9855 84.4099 21.9078 86.3626 21.5504L86.4869 22.5242C84.4669 22.8867 82.7472 22.9696 80.116 22.98H79.0594ZM102.331 13.1699V26.1913H101.222V13.1699H102.331ZM91.3396 18.7845C91.3396 16.0186 92.4376 14.268 94.1262 14.268C95.7111 14.268 96.7833 15.7907 96.9283 18.2459H98.6117V13.4496H99.7201V25.5283H98.6117V19.1989H96.9335C96.8195 21.7369 95.737 23.3218 94.1262 23.3115C92.4376 23.3218 91.3396 21.5608 91.3396 18.7845ZM92.4169 18.7845C92.4066 20.8978 93.0799 22.2341 94.1262 22.2238C95.1932 22.2341 95.8665 20.8978 95.8665 18.7845C95.8665 16.6713 95.1932 15.3453 94.1262 15.3453C93.0799 15.3453 92.4066 16.6713 92.4169 18.7845ZM-209.74 39.1699V52.212H-210.89V39.1699H-209.74ZM-219.985 44.712C-219.985 41.9461 -218.607 40.1851 -216.66 40.1747C-214.733 40.1851 -213.334 41.9461 -213.334 44.712C-213.334 47.4883 -214.733 49.2493 -216.66 49.2493C-218.607 49.2493 -219.985 47.4883 -219.985 44.712ZM-218.876 44.712C-218.876 46.8356 -217.965 48.2238 -216.66 48.2238C-215.354 48.2238 -214.453 46.8356 -214.453 44.712C-214.453 42.5988 -215.354 41.2106 -216.66 41.2003C-217.965 41.2106 -218.876 42.5988 -218.876 44.712ZM-196.714 39.1699V52.212H-197.853V45.0435H-200.609V44.0905H-197.853V39.1699H-196.714ZM-206.907 49.0732V40.3612H-200.826V41.3142H-205.747V44.0283H-201.406V44.9606H-205.747V48.1098C-203.354 48.1046 -201.821 48.0425 -200.039 47.7162L-199.904 48.6692C-201.8 48.98 -203.395 49.0628 -205.913 49.0732H-206.907ZM-184.019 43.1167V44.049H-192.928V39.6464H-191.788V43.1167H-184.019ZM-194.565 46.7528V45.8204H-182.641V46.7528H-194.565ZM-193.011 51.8702V48.0787H-191.871V50.9171H-183.936V51.8702H-193.011ZM-167.736 39.1699V44.2977H-165.561V45.2921H-167.736V52.1913H-168.886V39.1699H-167.736ZM-177.277 49.0628V40.2783H-176.137V43.7175H-172.325V40.2783H-171.186V49.0628H-177.277ZM-176.137 48.0994H-172.325V44.6395H-176.137V48.0994ZM-152.928 49.6015V50.5753H-164.852V49.6015H-159.496V47.1464H-163.36V43.1271H-155.57V41.0863H-163.391V40.1333H-154.43V44.0698H-162.22V46.1934H-154.13V47.1464H-158.356V49.6015H-152.928ZM-136.252 45.3646V46.3177H-148.123V45.3646H-136.252ZM-147.45 43.6657C-145.181 43.4016 -142.995 42.2776 -142.933 40.7963H-147.035V39.8329H-137.318V40.7963H-141.441C-141.39 42.2673 -139.225 43.4016 -136.914 43.6657L-137.339 44.5773C-139.478 44.3132 -141.472 43.3602 -142.187 41.9099C-142.907 43.3602 -144.896 44.3132 -147.035 44.5773L-147.45 43.6657ZM-146.693 49.8191C-146.693 48.317 -145.005 47.4572 -142.198 47.4572C-139.401 47.4572 -137.722 48.317 -137.712 49.8191C-137.722 51.3211 -139.401 52.1602 -142.198 52.1602C-145.005 52.1602 -146.693 51.3211 -146.693 49.8191ZM-145.523 49.8191C-145.533 50.7203 -144.28 51.2383 -142.198 51.2383C-140.126 51.2383 -138.872 50.7203 -138.862 49.8191C-138.872 48.8971 -140.126 48.3791 -142.198 48.3688C-144.28 48.3791 -145.533 48.8971 -145.523 49.8191ZM-124.396 39.1699V52.1913H-125.546V39.1699H-124.396ZM-134.993 48.8039C-131.471 47.136 -129.674 44.6291 -129.42 41.5214H-134.393V40.5891H-128.25C-128.26 44.3287 -130 47.6436 -134.372 49.7465L-134.993 48.8039ZM-110.272 49.6015V50.5753H-122.195V49.6015H-116.84V47.1464H-120.704V43.1271H-112.914V41.0863H-120.735V40.1333H-111.774V44.0698H-119.564V46.1934H-111.474V47.1464H-115.7V49.6015H-110.272ZM-99.5828 47.395C-96.7859 47.395 -95.0145 48.2756 -95.0041 49.788C-95.0145 51.2797 -96.7859 52.1602 -99.5828 52.1602C-102.369 52.1602 -104.141 51.2797 -104.141 49.788C-104.141 48.2756 -102.369 47.395 -99.5828 47.395ZM-105.456 46.183V45.2403H-100.546V42.7231H-99.4171V45.2403H-93.6056V46.183H-105.456ZM-104.048 40.7756V39.8329H-95.118V40.9413C-95.118 41.9876 -95.118 43.0442 -95.4806 44.3909L-96.6098 44.2666C-96.2575 42.9199 -96.2575 41.9565 -96.2575 40.9413V40.7756H-104.048ZM-102.991 49.788C-103.001 50.6892 -101.655 51.2486 -99.5828 51.2486C-97.5006 51.2486 -96.1643 50.6892 -96.154 49.788C-96.1643 48.8557 -97.5006 48.2859 -99.5828 48.2756C-101.655 48.2859 -103.001 48.8557 -102.991 49.788ZM-81.7398 39.1699V52.1913H-82.8897V39.1699H-81.7398ZM-92.3372 48.8039C-88.8151 47.136 -87.0178 44.6291 -86.764 41.5214H-91.7364V40.5891H-85.5934C-85.6038 44.3287 -87.3441 47.6436 -91.7156 49.7465L-92.3372 48.8039ZM-67.6364 45.2196V46.1209H-79.5598V45.2196H-67.6364ZM-78.1199 48.0269V47.1671H-69.1282V49.933H-76.9493V51.1761H-68.7034V52.0152H-78.0992V49.1354H-70.2677V48.0269H-78.1199ZM-78.0474 40.3923V39.5635H-69.1696V42.2569H-76.8664V43.3964H-68.9417V44.2355H-78.0059V41.4696H-70.3195V40.3923H-78.0474ZM-52.5136 39.1492V44.2873H-50.6075V45.2714H-52.5136V52.1913H-53.6635V39.1492H-52.5136ZM-62.4169 48.7728V40.5373H-59.102V41.4903H-61.267V47.799C-60.6196 47.7835 -59.8375 47.7162 -58.9673 47.5297L-58.8534 48.4931C-60.0861 48.7521 -61.0702 48.7728 -61.8472 48.7728H-62.4169ZM-58.3561 48.7728V40.5373H-54.8858V41.4903H-57.2166V47.8042C-56.1963 47.7939 -55.3779 47.7317 -54.4611 47.4986L-54.3472 48.462C-55.4867 48.7417 -56.4086 48.7728 -57.7346 48.7728H-58.3561ZM-37.9751 45.4268V46.3798H-49.8467V45.4268H-37.9751ZM-48.9144 51.2175C-46.5525 50.886 -44.491 49.5912 -44.491 47.8405V47.4157H-43.3204V47.8405C-43.3204 49.5912 -41.259 50.886 -38.8867 51.2175L-39.3322 52.1291C-41.3108 51.8028 -43.1236 50.8705 -43.9006 49.441C-44.6827 50.8705 -46.4903 51.8028 -48.4689 52.1291L-48.9144 51.2175ZM-48.7279 44.2148V39.8122H-44.2735V40.7445H-47.5677V43.2825C-46.4437 43.2669 -45.3301 43.184 -44.087 42.8992L-43.9627 43.8522C-45.4337 44.1733 -46.6768 44.2148 -47.9924 44.2148H-48.7279ZM-43.5276 44.2148V39.8122H-39.125V40.7445H-42.3778V43.2825H-39.011V44.2148H-43.5276ZM-26.8034 39.1699V44.5359H-24.628V45.4993H-26.8034V52.1913H-27.9429V39.1699H-26.8034ZM-36.9553 42.2155V41.2624H-33.6093V39.3253H-32.4595V41.2624H-29.2067V42.2155H-36.9553ZM-36.2095 46.2866C-36.2198 44.5256 -34.8731 43.2928 -33.0189 43.2928C-31.1749 43.2928 -29.8386 44.5256 -29.8283 46.2866C-29.8386 48.0477 -31.1749 49.27 -33.0189 49.27C-34.8731 49.27 -36.2198 48.0477 -36.2095 46.2866ZM-35.1114 46.2866C-35.1218 47.4675 -34.2309 48.3066 -33.0189 48.2963C-31.8172 48.3066 -30.9367 47.4675 -30.9263 46.2866C-30.9367 45.1057 -31.8172 44.2562 -33.0189 44.2562C-34.2309 44.2562 -35.1218 45.1057 -35.1114 46.2866ZM-12.7725 39.1699V52.1913H-13.8706V39.1699H-12.7725ZM-23.9086 48.5449C-21.0806 46.8667 -19.6614 44.5152 -19.4438 41.7907H-23.3492V40.8273H-18.294C-18.2991 42.1119 -18.5011 43.355 -18.9466 44.5152H-16.6054V39.5221H-15.5073V51.5283H-16.6054V45.4475H-19.3713C-20.1586 46.9599 -21.4172 48.3015 -23.2352 49.3736L-23.9086 48.5449ZM-0.612396 40.3508V46.3488H-6.63104V40.3508H-0.612396ZM-5.51226 45.4164H-1.73118V41.2935H-5.51226V45.4164ZM-5.16005 51.9012V47.8094H-4.02055V50.9482H3.5934V51.9012H-5.16005ZM1.84271 48.7106V39.1595H2.99258V43.1271H4.95045V44.1008H2.99258V48.7106H1.84271ZM16.2879 45.4268V46.3798H7.29622V40.3819H16.1636V41.3349H8.43573V45.4268H16.2879ZM5.77343 50.4095V49.4461H17.6968V50.4095H5.77343ZM29.2622 43.1167V44.049H20.3533V39.6464H21.4928V43.1167H29.2622ZM18.7166 46.7528V45.8204H30.6399V46.7528H18.7166ZM20.2704 51.8702V48.0787H21.41V50.9171H29.345V51.8702H20.2704ZM39.8788 41.6354C39.8788 43.3446 41.153 44.8674 43.0694 45.4993L42.5204 46.4006C41.0235 45.9033 39.8892 44.8674 39.3298 43.5622C38.7704 45.0539 37.5687 46.2193 36.0045 46.7838L35.414 45.8619C37.3719 45.1989 38.7289 43.5207 38.7393 41.6457V41.0863H35.7662V40.1333H42.8001V41.0863H39.8788V41.6354ZM37.1544 49.7569C37.1544 48.2548 38.7911 47.3847 41.4741 47.3847C44.1468 47.3847 45.7628 48.2548 45.7628 49.7569C45.7628 51.2797 44.1468 52.1602 41.4741 52.1602C38.7911 52.1602 37.1544 51.2797 37.1544 49.7569ZM38.3042 49.7569C38.2939 50.6892 39.5059 51.2383 41.4741 51.2383C43.4423 51.2383 44.644 50.6892 44.644 49.7569C44.644 48.8453 43.4423 48.3066 41.4741 48.3066C39.5059 48.3066 38.2939 48.8453 38.3042 49.7569ZM44.499 47.0325V39.1699H45.6488V42.4952H47.6067V43.4586H45.6488V47.0325H44.499ZM59.1617 39.1699V52.1913H58.0119V39.1699H59.1617ZM48.6887 48.7728C50.6258 47.8923 52.1072 45.6961 52.1072 43.4068V42.3709H49.0409V41.4385H52.0968V39.4081H53.2363V41.4385H56.2612V42.3709H53.2363V43.4068C53.2363 45.5925 54.7591 47.7058 56.717 48.5345L56.0747 49.4358C54.5726 48.7676 53.2985 47.3536 52.6925 45.634C52.102 47.4572 50.8434 48.9541 49.3413 49.6637L48.6887 48.7728ZM72.1256 39.1699V52.212H70.9757V39.1699H72.1256ZM61.8804 44.712C61.8804 41.9461 63.2582 40.1851 65.2057 40.1747C67.1325 40.1851 68.531 41.9461 68.531 44.712C68.531 47.4883 67.1325 49.2493 65.2057 49.2493C63.2582 49.2493 61.8804 47.4883 61.8804 44.712ZM62.9889 44.712C62.9889 46.8356 63.9005 48.2238 65.2057 48.2238C66.511 48.2238 67.4122 46.8356 67.4122 44.712C67.4122 42.5988 66.511 41.2106 65.2057 41.2003C63.9005 41.2106 62.9889 42.5988 62.9889 44.712ZM85.1205 39.1699V52.1913H83.9707V39.1699H85.1205ZM74.5232 48.8039C78.0453 47.136 79.8426 44.6291 80.0964 41.5214H75.124V40.5891H81.2669C81.2566 44.3287 79.5163 47.6436 75.1447 49.7465L74.5232 48.8039ZM99.7151 39.4599V44.4945H101.29V39.1699H102.388V52.1913H101.29V45.4475H99.7151V51.5387H98.6377V39.4599H99.7151ZM91.4796 48.7935V40.817H94.3076V41.77H92.5466V47.8094C93.0386 47.7887 93.6809 47.7317 94.3905 47.5504L94.4941 48.5345C93.396 48.7831 92.5466 48.7935 91.9975 48.7935H91.4796ZM94.8774 48.7935V40.817H97.7676V41.77H95.9236V47.8146C96.5348 47.799 97.2548 47.7421 98.0369 47.509L98.1508 48.4931C97.0631 48.7831 96.1619 48.7935 95.4057 48.7935H94.8774ZM-208.569 71.8308V72.7838H-213.873V75.4461H-215.012V72.7838H-220.492V71.8308H-208.569ZM-218.959 77.9012V74.1616H-217.809V76.9482H-209.895V77.9012H-218.959ZM-218.939 70.3391V65.8018H-210.123V70.3391H-218.939ZM-217.809 69.4171H-211.262V66.7238H-217.809V69.4171ZM-196.776 65.1699V78.212H-197.926V65.1699H-196.776ZM-207.021 70.712C-207.021 67.9461 -205.643 66.1851 -203.696 66.1747C-201.769 66.1851 -200.37 67.9461 -200.37 70.712C-200.37 73.4883 -201.769 75.2493 -203.696 75.2493C-205.643 75.2493 -207.021 73.4883 -207.021 70.712ZM-205.913 70.712C-205.913 72.8356 -205.001 74.2238 -203.696 74.2238C-202.39 74.2238 -201.489 72.8356 -201.489 70.712C-201.489 68.5988 -202.39 67.2106 -203.696 67.2003C-205.001 67.2106 -205.913 68.5988 -205.913 70.712ZM-190.121 72.6077V75.5912H-187.065V72.6077H-185.915V75.5912H-182.621V76.5546H-194.544V75.5912H-191.27V72.6077H-190.121ZM-193.953 71.7997C-191.757 71.4268 -189.199 69.614 -189.199 67.5214V67.2831H-193.56V66.3301H-183.646V67.2831H-188.007V67.5214C-188.007 69.614 -185.438 71.3957 -183.19 71.7583L-183.667 72.6802C-185.651 72.2762 -187.754 71.0124 -188.593 69.2099C-189.432 71.0228 -191.524 72.3177 -193.477 72.7217L-193.953 71.7997ZM-180.202 77.0829C-180.72 77.0829 -181.155 76.6581 -181.145 76.1402C-181.155 75.6222 -180.72 75.1975 -180.202 75.1975C-179.684 75.1975 -179.26 75.6222 -179.26 76.1402C-179.26 76.6581 -179.684 77.0829 -180.202 77.0829ZM-162.875 65.1699V78.1913H-163.973V65.1699H-162.875ZM-174.011 74.5449C-171.183 72.8667 -169.764 70.5152 -169.546 67.7907H-173.452V66.8273H-168.396C-168.402 68.1119 -168.604 69.355 -169.049 70.5152H-166.708V65.5221H-165.61V77.5283H-166.708V71.4475H-169.474C-170.261 72.9599 -171.52 74.3015 -173.338 75.3736L-174.011 74.5449ZM-150.978 65.1699V70.3184H-148.803V71.2818H-150.978V78.212H-152.128V65.1699H-150.978ZM-160.488 74.9489V66.4441H-154.407V67.3867H-159.338V73.9751C-156.981 73.97 -155.313 73.8767 -153.382 73.5193L-153.236 74.5138C-155.277 74.8764 -156.986 74.9489 -159.462 74.9489H-160.488ZM-138.014 65.1699V70.4634H-135.901V71.4372H-138.014V78.1809H-139.164V65.1699H-138.014ZM-148.011 74.8039C-144.644 73.1309 -142.811 70.624 -142.552 67.5318H-147.4V66.5684H-141.381C-141.391 70.2562 -143.121 73.6126 -147.369 75.7051L-148.011 74.8039ZM-119.494 71.3646V72.3177H-131.365V71.3646H-119.494ZM-130.692 69.6657C-128.423 69.4016 -126.237 68.2776 -126.175 66.7963H-130.278V65.8329H-120.561V66.7963H-124.684C-124.632 68.2673 -122.467 69.4016 -120.157 69.6657L-120.581 70.5773C-122.721 70.3132 -124.715 69.3602 -125.429 67.9099C-126.149 69.3602 -128.138 70.3132 -130.278 70.5773L-130.692 69.6657ZM-129.936 75.8191C-129.936 74.317 -128.247 73.4572 -125.44 73.4572C-122.643 73.4572 -120.965 74.317 -120.954 75.8191C-120.965 77.3211 -122.643 78.1602 -125.44 78.1602C-128.247 78.1602 -129.936 77.3211 -129.936 75.8191ZM-128.765 75.8191C-128.775 76.7203 -127.522 77.2383 -125.44 77.2383C-123.368 77.2383 -122.115 76.7203 -122.104 75.8191C-122.115 74.8971 -123.368 74.3791 -125.44 74.3688C-127.522 74.3791 -128.775 74.8971 -128.765 75.8191ZM-107.638 65.1699V78.1913H-108.788V65.1699H-107.638ZM-118.236 74.8039C-114.714 73.136 -112.916 70.6291 -112.662 67.5214H-117.635V66.5891H-111.492C-111.502 70.3287 -113.243 73.6436 -117.614 75.7465L-118.236 74.8039ZM-94.6744 65.1699V78.1913H-95.8242V65.1699H-94.6744ZM-105.272 74.8039C-101.75 73.136 -99.9524 70.6291 -99.6986 67.5214H-104.671V66.5891H-98.528C-98.5383 70.3287 -100.279 73.6436 -104.65 75.7465L-105.272 74.8039ZM-85.2533 66.1747V66.8688C-85.2637 67.7182 -85.2637 69.0131 -85.5952 70.7224L-86.745 70.6291C-86.4291 69.0649 -86.398 67.9617 -86.3877 67.1381H-91.7485V66.1747H-85.2533ZM-92.5462 71.9344C-91.7071 71.9292 -90.754 71.924 -89.7492 71.8981V69.0649H-88.6097V71.8619C-87.1646 71.7997 -85.6729 71.6961 -84.321 71.5097L-84.2485 72.3591C-86.9729 72.8253 -90.1118 72.8771 -92.4322 72.8874L-92.5462 71.9344ZM-90.5365 77.9012V74.0787H-89.3866V76.9482H-81.8452V77.9012H-90.5365ZM-83.4301 74.9696V65.1699H-82.2699V69.4068H-80.3638V70.3909H-82.2699V74.9696H-83.4301ZM-73.5844 65.3978C-70.6838 65.3978 -68.9849 66.1954 -68.9849 67.6457C-68.9849 69.1167 -70.6838 69.9144 -73.5844 69.9247C-76.4849 69.9144 -78.1942 69.1167 -78.1942 67.6457C-78.1942 66.1954 -76.4849 65.3978 -73.5844 65.3978ZM-79.5098 71.7376V70.8052H-67.6382V71.7376H-79.5098ZM-78.0699 73.7472V72.8667H-69.1714V75.7776H-76.9096V77.1347H-68.7777V78.0463H-78.0388V74.9282H-70.3005V73.7472H-78.0699ZM-76.9925 67.6457C-77.0029 68.547 -75.7391 69.0442 -73.5844 69.0442C-71.4193 69.0442 -70.1555 68.547 -70.1555 67.6457C-70.1555 66.7859 -71.4193 66.268 -73.5844 66.268C-75.7391 66.268 -77.0029 66.7859 -76.9925 67.6457ZM-56.2032 66.3508V72.3488H-62.2219V66.3508H-56.2032ZM-61.1031 71.4164H-57.322V67.2935H-61.1031V71.4164ZM-60.7509 77.9012V73.8094H-59.6114V76.9482H-51.9974V77.9012H-60.7509ZM-53.7481 74.7106V65.1595H-52.5982V69.1271H-50.6404V70.1008H-52.5982V74.7106H-53.7481ZM-37.9355 70.6395V71.5718H-49.8174V70.6395H-37.9355ZM-48.3775 73.6333V72.732H-39.479V75.7569H-47.2172V77.1036H-39.0853V78.0359H-48.3464V74.8867H-40.6081V73.6333H-48.3775ZM-48.2324 69.5725V65.6153H-39.4893V66.5477H-47.0826V68.6298H-39.3547V69.5725H-48.2324ZM-33.3521 66.1747C-31.5807 66.1851 -30.3014 67.7079 -30.1201 70.1423H-27.1988V65.1699H-26.0593V78.212H-27.1988V71.0953H-30.1097C-30.234 73.6488 -31.5341 75.2493 -33.3521 75.2493C-35.2789 75.2493 -36.6256 73.4883 -36.6153 70.712C-36.6256 67.9461 -35.2789 66.1851 -33.3521 66.1747ZM-35.5172 70.712C-35.5172 72.8356 -34.6367 74.2238 -33.3521 74.2238C-32.078 74.2238 -31.1871 72.8356 -31.1871 70.712C-31.1871 68.5988 -32.078 67.2106 -33.3521 67.2003C-34.6367 67.2106 -35.5172 68.5988 -35.5172 70.712ZM-12.8365 65.1802V74.8453H-13.9242V69.9351H-15.7785V74.4206H-16.8662V65.4289H-15.7785V68.9613H-13.9242V65.1802H-12.8365ZM-23.237 72.1519V66.2783H-22.0872V71.1989C-20.7146 71.1885 -19.3886 71.1005 -17.8089 70.8052L-17.6845 71.7583C-19.4456 72.1001 -20.8855 72.1623 -22.4187 72.1519H-23.237ZM-21.4035 77.7666V73.4883H-20.2536V76.8135H-12.4325V77.7666H-21.4035ZM3.96455 65.1699V78.1913H2.86649V65.1699H3.96455ZM-7.31652 74.721C-5.50368 73.6333 -4.44705 71.2507 -4.44705 68.8785V67.6561H-6.96431V66.703H-0.956028V67.6561H-3.33862V68.8785C-3.33862 71.1367 -2.32343 73.3847 -0.531304 74.4206L-1.22536 75.27C-2.50472 74.5035 -3.41632 73.0998 -3.8773 71.4423C-4.34346 73.2345 -5.28614 74.7624 -6.59139 75.5808L-7.31652 74.721ZM-1.9505 70.8052V69.8626H0.24563V65.4807H1.33334V77.5076H0.24563V70.8052H-1.9505ZM16.5555 65.1802V72.6181H15.4056V65.1802H16.5555ZM6.10314 68.9199C6.10314 67.0967 7.54306 65.864 9.52165 65.864C11.5002 65.864 12.9298 67.0967 12.9298 68.9199C12.9298 70.7017 11.5002 71.9448 9.52165 71.9448C7.54306 71.9448 6.10314 70.7017 6.10314 68.9199ZM7.23229 68.9199C7.22193 70.1215 8.18533 70.971 9.52165 70.971C10.8476 70.971 11.811 70.1215 11.811 68.9199C11.811 67.6975 10.8476 66.8377 9.52165 66.8481C8.18533 66.8377 7.22193 67.6975 7.23229 68.9199ZM8.08173 78.0152V73.3225H16.5555V78.0152H8.08173ZM9.22124 77.0725H15.4263V74.2548H9.22124V77.0725ZM25.2618 67.0863C25.2618 69.3135 27.8101 71.3025 30.0788 71.7272L29.5401 72.6906C27.577 72.2348 25.5104 70.8415 24.6661 68.9251C23.8218 70.8311 21.7604 72.2296 19.7921 72.6906L19.2638 71.7272C21.5221 71.2921 24.0497 69.3239 24.0601 67.0863V66.0815H25.2618V67.0863ZM18.7666 76.4199V75.4565H30.6899V76.4199H18.7666ZM39.4212 66.0193C41.4205 66.0297 42.8812 67.2624 42.8915 69.0753C42.8812 70.7068 41.695 71.8722 40.0013 72.0846V74.3015C41.2185 74.2445 42.4409 74.1564 43.5752 74.0062L43.6581 74.8764C40.8922 75.3425 37.8156 75.3736 35.5262 75.3529L35.3294 74.3895C36.3808 74.3843 37.5928 74.3791 38.8515 74.3429V72.0898C37.1163 71.8774 35.9406 70.712 35.9509 69.0753C35.9406 67.2624 37.3805 66.0297 39.4212 66.0193ZM37.0697 69.0753C37.0593 70.2977 38.0538 71.1471 39.4212 71.1367C40.7679 71.1471 41.752 70.2977 41.7624 69.0753C41.752 67.8529 40.7679 67.0138 39.4212 67.0035C38.0538 67.0138 37.0593 67.8529 37.0697 69.0753ZM44.4143 78.1913V65.1699H45.5538V70.5463H47.6774V71.5304H45.5538V78.1913H44.4143ZM59.0046 72.2037V73.1464H50.0025V66.299H58.8595V67.2521H51.1627V69.1892H58.5798V70.1215H51.1627V72.2037H59.0046ZM48.459 76.4924V75.529H60.3823V76.4924H48.459ZM66.1259 66.3923H67.4519V73.9648C67.4519 76.0055 66.2606 77.145 64.4063 77.145C62.6556 77.145 61.3814 76.1402 61.3814 74.4931H62.6867C62.6867 75.3943 63.4118 75.9744 64.4063 75.9744C65.5043 75.9744 66.1259 75.2804 66.1259 73.9648V66.3923ZM69.2608 74.7417C69.2608 72.9185 70.8665 72.5041 72.2442 72.4006C72.7622 72.3643 74.0467 72.2918 74.3989 72.2814V71.634C74.3989 70.6291 73.7981 70.0387 72.5964 70.0387C71.5916 70.0387 70.9908 70.5048 70.8043 71.116H69.4991C69.6545 69.8315 70.8976 68.9406 72.6586 68.9406C73.6945 68.9406 75.6524 69.2514 75.6524 71.7583V77H74.3989V75.9227H74.3368C74.0778 76.451 73.3527 77.1865 71.9749 77.1865C70.4625 77.1865 69.2608 76.2956 69.2608 74.7417ZM70.5246 74.8039C70.5246 75.643 71.2187 76.0677 72.1821 76.0677C73.6116 76.0677 74.3989 75.1146 74.3989 74.1202V73.3173C74.026 73.3381 72.7777 73.4313 72.3996 73.4572C71.2498 73.5297 70.5246 73.9337 70.5246 74.8039ZM77.6611 77V69.0442H78.8835V70.2977H78.9871C79.3185 69.4378 80.0851 68.9406 81.121 68.9406C82.1673 68.9406 82.8717 69.4378 83.255 70.2977H83.3379C83.7419 69.4689 84.581 68.9406 85.7205 68.9406C87.1397 68.9406 88.1549 69.8108 88.1549 71.6754V77H86.8911V71.6961C86.8911 70.5256 86.1556 70.0698 85.2854 70.0698C84.177 70.0698 83.5451 70.8156 83.5451 71.8308V77H82.2709V71.5718C82.2709 70.6706 81.6286 70.0698 80.7067 70.0698C79.764 70.0698 78.9249 70.8778 78.9249 72.038V77H77.6611ZM93.5168 77.1657C91.2171 77.1657 89.7979 75.529 89.7979 73.0843C89.7979 70.6395 91.2378 68.9406 93.3925 68.9406C95.0707 68.9406 96.8318 69.9662 96.8318 72.9185V73.4468H91.0669C91.1239 75.125 92.1028 76.047 93.5168 76.047C94.4699 76.047 95.0707 75.6326 95.3608 75.1354H96.7075C96.3345 76.3474 95.1536 77.1657 93.5168 77.1657ZM91.0669 72.3695H95.5472C95.5472 71.0435 94.7081 70.0594 93.4029 70.0594C92.02 70.0594 91.1498 71.1471 91.0669 72.3695ZM102.885 71.116C102.719 70.453 102.212 70.018 101.28 70.018C100.295 70.018 99.6014 70.5463 99.6014 71.2093C99.6014 71.7376 100.026 72.1001 100.958 72.328L102.15 72.6181C103.569 72.9599 104.263 73.6644 104.263 74.7728C104.263 76.1506 103.144 77.1657 101.145 77.1657C99.3631 77.1657 98.2961 76.3681 98.0889 74.9178H99.4045C99.5496 75.6948 100.119 76.0677 101.124 76.0677C102.253 76.0677 102.968 75.5912 102.968 74.8453C102.968 74.2859 102.564 73.913 101.663 73.7058L100.461 73.4261C99.0731 73.105 98.3376 72.3488 98.3376 71.2818C98.3376 69.9247 99.5289 68.9406 101.28 68.9406C102.927 68.9406 103.963 69.8211 104.128 71.116H102.885ZM-217.872 103L-220.772 92.3923H-219.425L-217.219 100.98H-217.115L-214.878 92.3923H-213.396L-211.148 100.98H-211.055L-208.849 92.3923H-207.502L-210.403 103H-211.77L-214.09 94.6091H-214.173L-216.504 103H-217.872ZM-207.39 100.742C-207.39 98.9185 -205.784 98.5041 -204.406 98.4006C-203.888 98.3643 -202.604 98.2918 -202.251 98.2814V97.634C-202.251 96.6291 -202.852 96.0387 -204.054 96.0387C-205.059 96.0387 -205.66 96.5048 -205.846 97.116H-207.151C-206.996 95.8315 -205.753 94.9406 -203.992 94.9406C-202.956 94.9406 -200.998 95.2514 -200.998 97.7583V103H-202.251V101.923H-202.314C-202.573 102.451 -203.298 103.186 -204.675 103.186C-206.188 103.186 -207.39 102.296 -207.39 100.742ZM-206.126 100.804C-206.126 101.643 -205.432 102.068 -204.468 102.068C-203.039 102.068 -202.251 101.115 -202.251 100.12V99.3173C-202.624 99.3381 -203.873 99.4313 -204.251 99.4572C-205.401 99.5297 -206.126 99.9337 -206.126 100.804ZM-195.509 95.0442V96.1008H-197.187V100.711C-197.187 101.736 -196.679 101.902 -196.141 101.902C-195.913 101.902 -195.581 101.881 -195.395 101.871V103.041C-195.592 103.073 -195.902 103.104 -196.275 103.104C-197.332 103.104 -198.451 102.441 -198.451 101.042V96.1008H-199.652V95.0442H-198.451V93.1381H-197.187V95.0442H-195.509ZM-190.411 95.0442V96.1008H-192.089V100.711C-192.089 101.736 -191.582 101.902 -191.043 101.902C-190.815 101.902 -190.484 101.881 -190.297 101.871V103.041C-190.494 103.073 -190.805 103.104 -191.178 103.104C-192.234 103.104 -193.353 102.441 -193.353 101.042V96.1008H-194.555V95.0442H-193.353V93.1381H-192.089V95.0442H-190.411ZM-174.991 97.2714V98.2037H-179.011V101.581H-173.583V102.544H-185.506V101.581H-180.15V98.2037H-183.983V92.2265H-175.116V93.1692H-182.833V97.2714H-174.991ZM-164.561 92.3923V103H-165.887V93.77H-165.949L-168.529 95.4793V94.1533L-165.887 92.3923H-164.561ZM-161.403 103L-156.534 93.6457V93.5628H-162.138V92.3923H-155.166V93.625L-160.014 103H-161.403ZM-150.072 92.2472C-148.248 92.268 -146.218 93.366 -146.218 97.2714C-146.218 101.042 -147.762 103.145 -150.248 103.145C-152.112 103.145 -153.428 102.006 -153.697 100.317H-152.392C-152.154 101.27 -151.429 101.974 -150.248 101.974C-148.518 101.974 -147.461 100.483 -147.451 97.9033H-147.596C-148.207 98.7838 -149.181 99.3122 -150.31 99.3122C-152.206 99.3122 -153.78 97.8515 -153.78 95.8004C-153.78 93.8322 -152.33 92.2265 -150.072 92.2472ZM-152.496 95.7901C-152.496 97.1057 -151.501 98.1519 -150.113 98.1519C-148.735 98.1519 -147.658 97.0124 -147.658 95.7693C-147.658 94.547 -148.673 93.4075 -150.072 93.4075C-151.46 93.4075 -152.506 94.4848 -152.496 95.7901ZM-140.935 103.145C-143.286 103.145 -144.643 101.166 -144.643 97.6961C-144.643 94.2569 -143.265 92.2472 -140.935 92.2472C-138.604 92.2472 -137.226 94.2569 -137.226 97.6961C-137.226 101.166 -138.583 103.145 -140.935 103.145ZM-143.359 97.6961C-143.359 100.441 -142.468 101.974 -140.935 101.974C-139.401 101.974 -138.511 100.441 -138.511 97.6961C-138.511 94.951 -139.412 93.3971 -140.935 93.3971C-142.457 93.3971 -143.359 94.951 -143.359 97.6961ZM-125.141 91.1802V100.825H-126.291V96.308H-130.052V95.3757H-126.291V93.8218H-130.052V92.8895H-126.291V91.1802H-125.141ZM-135.159 98.8771V92.1229H-134.009V97.9033C-132.217 97.8981 -130.487 97.7997 -128.498 97.4268L-128.373 98.3902C-130.497 98.7838 -132.268 98.8667 -134.175 98.8771H-135.159ZM-133.532 103.901V99.9959H-132.372V102.948H-124.789V103.901H-133.532ZM-111.846 91.1699V104.191H-112.944V97.3543H-114.85V103.508H-115.917V91.4599H-114.85V96.4012H-112.944V91.1699H-111.846ZM-122.495 100.97V92.7652H-117.616V93.7079H-121.345V99.9855C-119.548 99.9803 -118.31 99.9078 -116.87 99.6126L-116.767 100.576C-118.331 100.907 -119.657 100.959 -121.656 100.97H-122.495ZM-102.555 91.6464C-100.608 91.6568 -99.1886 92.8377 -99.1783 94.5366C-99.1886 96.2355 -100.608 97.4061 -102.555 97.4061C-104.524 97.4061 -105.943 96.2355 -105.943 94.5366C-105.943 92.8377 -104.524 91.6568 -102.555 91.6464ZM-104.814 94.5366C-104.824 95.6761 -103.861 96.4634 -102.555 96.4634C-101.26 96.4634 -100.297 95.6761 -100.297 94.5366C-100.297 93.4075 -101.26 92.6098 -102.555 92.6202C-103.861 92.6098 -104.824 93.4075 -104.814 94.5366ZM-103.964 99.4157V98.4834H-95.4904V101.622H-102.804V103.083H-95.0242V104.015H-103.923V100.752H-96.6299V99.4157H-103.964ZM-96.6403 97.8515V91.1699H-95.4904V97.8515H-96.6403ZM-86.7841 95.7901V97.6547H-81.4078V98.6077H-93.2793V97.6547H-87.9133V95.7901H-86.7841ZM-92.6163 95.5311C-90.3477 95.2876 -88.1723 94.174 -88.0894 92.7134H-92.1916V91.7811H-82.4747V92.7134H-86.5977C-86.5252 94.1637 -84.3497 95.2876 -82.0707 95.5311L-82.4955 96.4427C-84.6346 96.1785 -86.6287 95.241 -87.3435 93.8063C-88.0635 95.241 -90.0524 96.1785 -92.1916 96.4427L-92.6163 95.5311ZM-91.8497 101.923C-91.8497 100.472 -90.1716 99.6747 -87.3539 99.6747C-84.5466 99.6747 -82.8787 100.472 -82.8684 101.923C-82.8787 103.363 -84.5466 104.16 -87.3539 104.16C-90.1716 104.16 -91.8497 103.363 -91.8497 101.923ZM-90.6792 101.923C-90.6895 102.772 -89.4568 103.269 -87.3539 103.259C-85.2613 103.269 -84.0286 102.772 -84.0183 101.923C-84.0286 101.063 -85.2613 100.576 -87.3539 100.576C-89.4568 100.576 -90.6895 101.063 -90.6792 101.923ZM-76.0578 92.1229C-74.0067 92.1229 -72.5565 93.366 -72.5461 95.1789C-72.5565 96.9917 -74.0067 98.2348 -76.0578 98.2348C-78.1089 98.2348 -79.5799 96.9917 -79.5696 95.1789C-79.5799 93.366 -78.1089 92.1229 -76.0578 92.1229ZM-80.2429 100.358C-77.8396 100.369 -74.5247 100.348 -71.6449 99.9233L-71.5516 100.773C-74.535 101.332 -77.736 101.343 -80.0875 101.343L-80.2429 100.358ZM-78.4404 95.1789C-78.4508 96.3909 -77.446 97.23 -76.0578 97.23C-74.6801 97.23 -73.6752 96.3909 -73.6752 95.1789C-73.6752 93.9669 -74.6801 93.1278 -76.0578 93.1278C-77.446 93.1278 -78.4508 93.9669 -78.4404 95.1789ZM-70.785 104.212V91.1699H-69.6352V104.212H-70.785ZM-53.5075 91.1699V96.3494H-51.3321V97.3232H-53.5075V104.212H-54.647V91.1699H-53.5075ZM-63.0793 93.3349V92.3819H-57.1539V97.0435H-61.9087V100.089C-59.4899 100.089 -57.8014 100.001 -55.8176 99.6333L-55.7036 100.586C-57.7547 100.959 -59.4951 101.052 -62.0123 101.063H-63.0482V96.0905H-58.3038V93.3349H-63.0793ZM-39.891 91.1699V104.212H-41.0409V91.1699H-39.891ZM-49.7736 100.98V92.413H-43.5789V93.3764H-48.6134V99.9855C-46.0806 99.9855 -44.4231 99.9078 -42.4704 99.5504L-42.3461 100.524C-44.3661 100.887 -46.0858 100.97 -48.717 100.98H-49.7736ZM-26.5024 91.1699V104.191H-27.6108V91.1699H-26.5024ZM-37.4934 96.7845C-37.4934 94.0186 -36.3954 92.268 -34.7068 92.268C-33.1219 92.268 -32.0497 93.7907 -31.9047 96.2459H-30.2213V91.4496H-29.1129V103.528H-30.2213V97.1989H-31.8995C-32.0135 99.7369 -33.096 101.322 -34.7068 101.311C-36.3954 101.322 -37.4934 99.5608 -37.4934 96.7845ZM-36.4161 96.7845C-36.4265 98.8978 -35.7531 100.234 -34.7068 100.224C-33.6398 100.234 -32.9665 98.8978 -32.9665 96.7845C-32.9665 94.6713 -33.6398 93.3453 -34.7068 93.3453C-35.7531 93.3453 -36.4265 94.6713 -36.4161 96.7845ZM-13.9633 91.1699V104.212H-15.1131V91.1699H-13.9633ZM-24.2084 96.712C-24.2084 93.9461 -22.8307 92.1851 -20.8832 92.1747C-18.9564 92.1851 -17.5579 93.9461 -17.5579 96.712C-17.5579 99.4883 -18.9564 101.249 -20.8832 101.249C-22.8307 101.249 -24.2084 99.4883 -24.2084 96.712ZM-23.1 96.712C-23.1 98.8356 -22.1884 100.224 -20.8832 100.224C-19.5779 100.224 -18.6767 98.8356 -18.6767 96.712C-18.6767 94.5988 -19.5779 93.2106 -20.8832 93.2003C-22.1884 93.2106 -23.1 94.5988 -23.1 96.712ZM-0.937251 91.1699V104.212H-2.07675V97.0435H-4.83228V96.0905H-2.07675V91.1699H-0.937251ZM-11.1306 101.073V92.3612H-5.04982V93.3142H-9.9704V96.0283H-5.62993V96.9606H-9.9704V100.11C-7.57744 100.105 -6.0443 100.042 -4.26253 99.7162L-4.12786 100.669C-6.02358 100.98 -7.61888 101.063 -10.1361 101.073H-11.1306ZM13.135 97.2196V98.1209H1.2117V97.2196H13.135ZM2.65162 100.027V99.1671H11.6433V101.933H3.8222V103.176H12.0681V104.015H2.67233V101.135H10.5038V100.027H2.65162ZM2.72413 92.3923V91.5635H11.6019V94.2569H3.90507V95.3964H11.8298V96.2355H2.76557V93.4696H10.452V92.3923H2.72413ZM24.539 92.3508V98.3488H18.5203V92.3508H24.539ZM19.6391 97.4164H23.4202V93.2935H19.6391V97.4164ZM19.9913 103.901V99.8094H21.1308V102.948H28.7448V103.901H19.9913ZM26.9941 100.711V91.1595H28.1439V95.1271H30.1018V96.1008H28.1439V100.711H26.9941ZM42.8067 96.6395V97.5718H30.9248V96.6395H42.8067ZM32.3647 99.6333V98.732H41.2632V101.757H33.5249V103.104H41.6568V104.036H32.3958V100.887H40.1341V99.6333H32.3647ZM32.5097 95.5725V91.6153H41.2528V92.5477H33.6596V94.6298H41.3875V95.5725H32.5097ZM47.39 92.1747C49.1615 92.1851 50.4408 93.7079 50.6221 96.1423H53.5434V91.1699H54.6829V104.212H53.5434V97.0953H50.6325C50.5081 99.6488 49.2081 101.249 47.39 101.249C45.4633 101.249 44.1166 99.4883 44.1269 96.712C44.1166 93.9461 45.4633 92.1851 47.39 92.1747ZM45.225 96.712C45.225 98.8356 46.1055 100.224 47.39 100.224C48.6642 100.224 49.5551 98.8356 49.5551 96.712C49.5551 94.5988 48.6642 93.2106 47.39 93.2003C46.1055 93.2106 45.225 94.5988 45.225 96.712ZM65.3099 93.3142C65.3099 95.0131 66.7187 96.5256 68.6559 97.116L68.0757 98.0173C66.5478 97.5356 65.3254 96.4893 64.7349 95.1426C64.1652 96.5825 62.9376 97.7117 61.3734 98.2452L60.7829 97.3336C62.7408 96.712 64.1393 95.1064 64.1496 93.3142V92.9827H61.1041V92.0401H68.3036V92.9827H65.3099V93.3142ZM62.9376 104.015V98.8564H64.0668V100.431H70.2304V98.8564H71.3699V104.015H62.9376ZM64.0668 103.073H70.2304V101.353H64.0668V103.073ZM70.2201 98.2141V91.1699H71.3699V98.2141H70.2201ZM84.7378 91.1699V104.191H83.6294V91.1699H84.7378ZM73.7468 96.7845C73.7468 94.0186 74.8449 92.268 76.5334 92.268C78.1183 92.268 79.1905 93.7907 79.3355 96.2459H81.0189V91.4496H82.1273V103.528H81.0189V97.1989H79.3407C79.2268 99.7369 78.1442 101.322 76.5334 101.311C74.8449 101.322 73.7468 99.5608 73.7468 96.7845ZM74.8241 96.7845C74.8138 98.8978 75.4871 100.234 76.5334 100.224C77.6004 100.234 78.2737 98.8978 78.2737 96.7845C78.2737 94.6713 77.6004 93.3453 76.5334 93.3453C75.4871 93.3453 74.8138 94.6713 74.8241 96.7845ZM101.104 91.1699V97.9033H99.9539V94.5159H97.0533V93.5628H99.9539V91.1699H101.104ZM90.2992 97.0124C92.2571 96.3598 93.6038 94.7231 93.6141 92.817V91.5843H94.7433V92.817C94.7329 94.5262 96.0796 96.0905 97.9857 96.712L97.3641 97.6133C95.9242 97.1005 94.7743 96.0749 94.1994 94.7593C93.64 96.2407 92.4643 97.3802 90.9208 97.9344L90.2992 97.0124ZM92.6611 99.4883V98.5663H101.104V101.664H93.8213V103.083H101.591V104.015H92.6922V100.783H99.9643V99.4883H92.6611ZM-209.74 117.17V130.191H-210.89V117.17H-209.74ZM-220.213 126.773C-218.276 125.892 -216.794 123.696 -216.794 121.407V120.371H-219.86V119.439H-216.805V117.408H-215.665V119.439H-212.64V120.371H-215.665V121.407C-215.665 123.593 -214.142 125.706 -212.184 126.535L-212.827 127.436C-214.329 126.768 -215.603 125.354 -216.209 123.634C-216.799 125.457 -218.058 126.954 -219.56 127.664L-220.213 126.773ZM-196.455 117.18V125.25H-197.542V121.718H-199.252V125.043H-200.339V117.387H-199.252V120.765H-197.542V117.18H-196.455ZM-207.58 119.604V118.662H-204.794V117.222H-203.654V118.662H-200.899V119.604H-207.58ZM-207.011 122.494C-207.021 121.127 -205.871 120.267 -204.234 120.267C-202.577 120.267 -201.437 121.127 -201.427 122.494C-201.437 123.831 -202.577 124.722 -204.234 124.722C-205.871 124.722 -207.021 123.831 -207.011 122.494ZM-206.679 129.155C-205.042 128.606 -204.027 127.27 -204.027 126.079V125.623H-202.898V126.079C-202.908 127.198 -202.302 128.363 -201.075 129.026C-199.837 128.301 -199.2 127.042 -199.189 126.079V125.623H-198.06V126.079C-198.071 127.353 -197.076 128.648 -195.408 129.155L-195.957 130.036C-197.263 129.59 -198.185 128.7 -198.635 127.633C-199.034 128.663 -199.821 129.658 -201.044 130.15C-202.302 129.679 -203.105 128.751 -203.488 127.695C-203.965 128.705 -204.877 129.585 -206.12 130.036L-206.679 129.155ZM-205.985 122.494C-205.985 123.313 -205.27 123.852 -204.234 123.852C-203.188 123.852 -202.473 123.313 -202.473 122.494C-202.473 121.655 -203.188 121.127 -204.234 121.127C-205.27 121.127 -205.985 121.655 -205.985 122.494ZM-184.465 117.17V122.318H-182.289V123.282H-184.465V130.212H-185.614V117.17H-184.465ZM-193.974 126.949V118.444H-187.893V119.387H-192.824V125.975C-190.468 125.97 -188.8 125.877 -186.868 125.519L-186.723 126.514C-188.764 126.876 -190.473 126.949 -192.949 126.949H-193.974ZM-171.138 118.485V119.78C-171.148 121.386 -171.148 123.168 -171.625 125.789L-172.785 125.654C-172.298 123.168 -172.298 121.345 -172.288 119.78V119.439H-180.316V118.485H-171.138ZM-181.58 128.347V127.384H-176.929V122.733H-175.789V127.384H-169.709V128.347H-181.58ZM-154.669 117.17V120.506H-152.711V121.479H-154.669V124.732H-155.818V117.17H-154.669ZM-164.82 119.459V118.517H-161.506V117.046H-160.366V118.517H-157.062V119.459H-164.82ZM-164.075 122.349C-164.085 120.961 -162.832 120.07 -160.936 120.07C-159.071 120.07 -157.818 120.961 -157.807 122.349C-157.818 123.738 -159.071 124.639 -160.936 124.628C-162.832 124.639 -164.085 123.738 -164.075 122.349ZM-162.977 122.349C-162.987 123.199 -162.169 123.758 -160.936 123.758C-159.724 123.758 -158.905 123.199 -158.895 122.349C-158.905 121.51 -159.724 120.941 -160.936 120.951C-162.169 120.941 -162.987 121.51 -162.977 122.349ZM-162.904 130.015V125.302H-161.765V126.7H-155.818V125.302H-154.669V130.015H-162.904ZM-161.765 129.083H-155.818V127.612H-161.765V129.083ZM-141.156 117.17V130.191H-142.295V117.17H-141.156ZM-151.038 126.835V118.454H-149.909V125.83C-147.92 125.825 -145.874 125.67 -143.683 125.209L-143.528 126.193C-145.838 126.669 -147.899 126.835 -149.982 126.835H-151.038ZM-128.844 117.17V122.318H-126.669V123.282H-128.844V130.212H-129.994V117.17H-128.844ZM-138.354 126.949V118.444H-132.273V119.387H-137.204V125.975C-134.848 125.97 -133.18 125.877 -131.248 125.519L-131.103 126.514C-133.143 126.876 -134.853 126.949 -137.329 126.949H-138.354ZM-124.582 129.083C-125.1 129.083 -125.535 128.658 -125.525 128.14C-125.535 127.622 -125.1 127.198 -124.582 127.198C-124.064 127.198 -123.64 127.622 -123.64 128.14C-123.64 128.658 -124.064 129.083 -124.582 129.083Z" fill="#484848"/>
</g>
<g id="quiz_floating" filter="url(#filter0_d_1255_1091)">
<rect x="-20" y="-14" width="134" height="55" rx="27.5" fill="#264932" shape-rendering="crispEdges"/>
<g id="material-symbols:quiz-sharp">
<path id="Vector" d="M15.75 16.875C16.0688 16.875 16.3455 16.758 16.5802 16.524C16.815 16.29 16.932 16.0132 16.9313 15.6937C16.9305 15.3742 16.8135 15.0979 16.5802 14.8646C16.347 14.6314 16.0702 14.514 15.75 14.5125C15.4298 14.511 15.1534 14.6284 14.9209 14.8646C14.6884 15.1009 14.571 15.3772 14.5687 15.6937C14.5665 16.0103 14.6839 16.287 14.9209 16.524C15.1579 16.761 15.4342 16.878 15.75 16.875ZM14.9062 13.275H16.5938C16.5938 12.7312 16.65 12.333 16.7625 12.0802C16.875 11.8275 17.1375 11.4945 17.55 11.0813C18.1125 10.5188 18.4875 10.0642 18.675 9.71775C18.8625 9.37125 18.9563 8.96325 18.9563 8.49375C18.9563 7.65 18.6607 6.96112 18.0697 6.42712C17.4788 5.89312 16.7055 5.62575 15.75 5.625C14.9812 5.625 14.3111 5.84062 13.7396 6.27187C13.1681 6.70312 12.7695 7.275 12.5437 7.9875L14.0625 8.60625C14.2312 8.1375 14.4611 7.78612 14.7521 7.55212C15.0431 7.31812 15.3757 7.20075 15.75 7.2C16.2 7.2 16.5656 7.32675 16.8469 7.58025C17.1281 7.83375 17.2688 8.17575 17.2688 8.60625C17.2688 8.86875 17.1937 9.11737 17.0437 9.35212C16.8937 9.58687 16.6312 9.882 16.2562 10.2375C15.6375 10.7812 15.258 11.208 15.1178 11.5177C14.9775 11.8275 14.907 12.4132 14.9062 13.275ZM6.75 20.25V2.25H24.75V20.25H6.75ZM2.25 24.75V6.75H4.5V22.5H20.25V24.75H2.25Z" fill="white"/>
</g>
</g>
</g>
<defs>
<filter id="filter0_d_1255_1091" x="-30" y="-24" width="154" height="75" filterUnits="userSpaceOnUse" color-interpolation-filters="sRGB">
<feFlood flood-opacity="0" result="BackgroundImageFix"/>
<feColorMatrix in="SourceAlpha" type="matrix" values="0 0 0 0 0 0 0 0 0 0 0 0 0 0 0 0 0 0 127 0" result="hardAlpha"/>
<feOffset/>
<feGaussianBlur stdDeviation="5"/>
<feComposite in2="hardAlpha" operator="out"/>
<feColorMatrix type="matrix" values="0 0 0 0 0 0 0 0 0 0 0 0 0 0 0 0 0 0 0.25 0"/>
<feBlend mode="normal" in2="BackgroundImageFix" result="effect1_dropShadow_1255_1091"/>
<feBlend mode="normal" in="SourceGraphic" in2="effect1_dropShadow_1255_1091" result="shape"/>
</filter>
<clipPath id="clip0_1255_1091">
<rect width="375" height="812" fill="white" transform="translate(-241 -723)"/>
</clipPath>
</defs>
</svg>