<svg xmlns="http://www.w3.org/2000/svg" width="current" height="current" viewBox="0 0 22 26" fill="none">
<path d="M11.5947 5.56396L11.5947 21.189C11.5947 21.3962 11.5124 21.5949 11.3659 21.7414C11.2194 21.8879 11.0207 21.9702 10.8135 21.9702C10.6063 21.9702 10.4076 21.8879 10.261 21.7414C10.1145 21.5949 10.0322 21.3962 10.0322 21.189L10.0322 5.56396C10.0322 5.35676 10.1145 5.15805 10.261 5.01154C10.4076 4.86502 10.6063 4.78271 10.8135 4.78271C11.0207 4.78271 11.2194 4.86503 11.3659 5.01154C11.5124 5.15805 11.5947 5.35676 11.5947 5.56396Z" fill="#1B1B1D"/>
<path d="M10.8135 5.88733L4.33534 12.367C4.18864 12.5137 3.98968 12.5961 3.78221 12.5961C3.57475 12.5961 3.37579 12.5137 3.22909 12.367C3.08239 12.2203 2.99998 12.0214 2.99998 11.8139C2.99998 11.6064 3.08239 11.4075 3.22909 11.2608L10.2603 4.22952C10.3329 4.15677 10.4191 4.09904 10.514 4.05966C10.609 4.02027 10.7107 4 10.8135 4C10.9162 4 11.018 4.02027 11.1129 4.05966C11.2078 4.09904 11.294 4.15677 11.3666 4.22952L18.3978 11.2608C18.5445 11.4075 18.627 11.6064 18.627 11.8139C18.627 12.0214 18.5445 12.2203 18.3978 12.367C18.2511 12.5137 18.0522 12.5961 17.8447 12.5961C17.6373 12.5961 17.4383 12.5137 17.2916 12.367L10.8135 5.88733Z" fill="#1B1B1D"/>
</svg>